<svg width="46" height="36" viewBox="0 0 46 36" fill="none" xmlns="http://www.w3.org/2000/svg" xmlns:xlink="http://www.w3.org/1999/xlink">
<path d="M12.983,0C11.949,0 10.988,0.533 10.439,1.41L0.733,16.94L0.071,18L0.733,19.06L10.439,34.59C10.988,35.467 11.949,36 12.983,36L41.429,36C43.638,36 45.429,34.209 45.429,32L45.429,4C45.429,1.791 43.638,0 41.429,0L12.983,0ZM4.788,18L13.538,4L41.429,4L41.429,32L13.538,32L4.788,18ZM33.844,10.586C34.625,11.367 34.625,12.633 33.844,13.414L28.758,18.5L33.844,23.586C34.625,24.367 34.625,25.633 33.844,26.414C33.062,27.195 31.796,27.195 31.015,26.414L25.929,21.328L20.844,26.414C20.062,27.195 18.796,27.195 18.015,26.414C17.234,25.633 17.234,24.367 18.015,23.586L23.101,18.5L18.015,13.414C17.234,12.633 17.234,11.367 18.015,10.586C18.796,9.805 20.062,9.805 20.844,10.586L25.929,15.672L31.015,10.586C31.796,9.805 33.062,9.805 33.844,10.586Z" clip-rule="evenodd" fill-rule="evenodd" fill="#1B1B1D"/>
</svg>
