<svg width="30" height="30" viewBox="0 0 30 30" fill="none" xmlns="http://www.w3.org/2000/svg" xmlns:xlink="http://www.w3.org/1999/xlink">
<path d="M23.663,25.863L22.238,26.333L22.239,26.335L23.663,25.863ZM27,26.313L28.249,27.143L28.25,27.143L27,26.313ZM25.438,23.4L25.424,24.9L25.438,24.9L25.438,23.4ZM22.239,26.335C22.644,27.558 23.497,28.787 24.945,28.981C26.392,29.175 27.538,28.214 28.249,27.143L25.751,25.483C25.544,25.793 25.376,25.934 25.29,25.988C25.214,26.035 25.242,25.994 25.343,26.008C25.445,26.021 25.46,26.068 25.399,26.003C25.33,25.928 25.204,25.747 25.086,25.391L22.239,26.335ZM28.25,27.143C28.938,26.106 29.311,24.761 28.661,23.549C28.011,22.335 26.685,21.9 25.438,21.9L25.438,24.9C25.756,24.9 25.935,24.956 26.013,24.992C26.081,25.023 26.05,25.027 26.017,24.965C25.983,24.902 26.004,24.88 25.992,24.954C25.979,25.039 25.926,25.219 25.75,25.483L28.25,27.143ZM25.451,21.901C24.337,21.891 23.283,22.333 22.63,23.239C21.979,24.143 21.89,25.28 22.238,26.333L25.087,25.393C25.035,25.235 25.033,25.129 25.04,25.073C25.046,25.019 25.06,24.998 25.064,24.993C25.068,24.988 25.081,24.971 25.124,24.95C25.17,24.929 25.265,24.899 25.424,24.9L25.451,21.901Z" fill="#7C7C7C"/>
<path d="M23.5,13.75C23.5,19.135 19.135,23.5 13.75,23.5L13.75,26.5C20.792,26.5 26.5,20.792 26.5,13.75L23.5,13.75ZM13.75,23.5C8.365,23.5 4,19.135 4,13.75L1,13.75C1,20.792 6.708,26.5 13.75,26.5L13.75,23.5ZM4,13.75C4,8.365 8.365,4 13.75,4L13.75,1C6.708,1 1,6.708 1,13.75L4,13.75ZM13.75,4C19.135,4 23.5,8.365 23.5,13.75L26.5,13.75C26.5,6.708 20.792,1 13.75,1L13.75,4Z" fill="#7C7C7C"/>
</svg>
