<svg width="36" height="36" viewBox="0 0 36 36" fill="none" xmlns="http://www.w3.org/2000/svg" xmlns:xlink="http://www.w3.org/1999/xlink">
<path d="M30.26,10.964C31.085,11.046 31.819,10.444 31.901,9.62C31.983,8.795 31.381,8.061 30.556,7.979L30.26,10.964ZM7.798,9.188L7.945,10.681L7.949,10.681L7.798,9.188ZM4.762,7.979C3.937,8.06 3.335,8.794 3.415,9.618C3.496,10.443 4.23,11.045 5.055,10.965L4.762,7.979ZM30.556,7.979C25.791,7.507 20.996,7.263 16.213,7.263L16.213,10.263C20.894,10.263 25.591,10.502 30.26,10.964L30.556,7.979ZM16.213,7.263C13.358,7.263 10.502,7.408 7.647,7.696L7.949,10.681C10.704,10.402 13.459,10.263 16.213,10.263L16.213,7.263ZM7.652,7.695L4.762,7.979L5.055,10.965L7.945,10.681L7.652,7.695Z" fill="#FF4141"/>
<path d="M11.22,7.792C11.083,8.609 11.634,9.383 12.451,9.52C13.268,9.657 14.042,9.106 14.179,8.289L11.22,7.792ZM13.011,6.185L11.532,5.936L11.532,5.937L13.011,6.185ZM22.305,6.199L20.824,6.441L20.826,6.449L22.305,6.199ZM21.137,8.291C21.276,9.108 22.05,9.658 22.867,9.52C23.683,9.382 24.234,8.607 24.095,7.791L21.137,8.291ZM14.179,8.289L14.491,6.433L11.532,5.937L11.22,7.792L14.179,8.289ZM14.491,6.434C14.551,6.075 14.59,5.858 14.643,5.682C14.691,5.523 14.725,5.49 14.719,5.497C14.663,5.56 14.763,5.333 15.802,5.333L15.802,2.333C14.447,2.333 13.265,2.61 12.469,3.512C11.761,4.316 11.625,5.383 11.532,5.936L14.491,6.434ZM15.802,5.333L19.514,5.333L19.514,2.333L15.802,2.333L15.802,5.333ZM19.514,5.333C20.012,5.333 20.299,5.39 20.453,5.442C20.525,5.466 20.562,5.487 20.577,5.497C20.591,5.506 20.594,5.51 20.595,5.511C20.596,5.512 20.631,5.552 20.679,5.709C20.73,5.883 20.768,6.096 20.824,6.441L23.785,5.958C23.696,5.412 23.563,4.354 22.86,3.544C22.071,2.635 20.891,2.333 19.514,2.333L19.514,5.333ZM20.826,6.449L21.137,8.291L24.095,7.791L23.784,5.949L20.826,6.449Z" fill="#FF4141"/>
<path d="M28.859,14.045C28.913,13.218 28.286,12.505 27.459,12.451C26.632,12.398 25.919,13.025 25.866,13.852L28.859,14.045ZM26.442,28.214L27.938,28.319L27.938,28.311L26.442,28.214ZM8.875,28.214L7.378,28.311L7.379,28.319L8.875,28.214ZM9.451,13.852C9.398,13.025 8.684,12.398 7.857,12.451C7.031,12.505 6.404,13.218 6.457,14.045L9.451,13.852ZM25.866,13.852L24.945,28.118L27.938,28.311L28.859,14.045L25.866,13.852ZM24.945,28.109C24.905,28.688 24.872,29.112 24.799,29.474C24.73,29.821 24.641,30.002 24.558,30.111C24.445,30.258 24.031,30.667 22.206,30.667L22.206,33.667C24.333,33.667 25.959,33.211 26.937,31.938C27.399,31.337 27.619,30.669 27.74,30.066C27.859,29.479 27.901,28.853 27.938,28.319L24.945,28.109ZM22.206,30.667L13.111,30.667L13.111,33.667L22.206,33.667L22.206,30.667ZM13.111,30.667C11.286,30.667 10.872,30.258 10.759,30.111C10.675,30.002 10.587,29.821 10.517,29.474C10.444,29.112 10.412,28.688 10.371,28.109L7.379,28.319C7.416,28.853 7.458,29.479 7.576,30.066C7.698,30.669 7.918,31.337 8.38,31.938C9.357,33.211 10.983,33.667 13.111,33.667L13.111,30.667ZM10.372,28.118L9.451,13.852L6.457,14.045L7.378,28.311L10.372,28.118Z" fill="#FF4141"/>
<line x1="15.292" y1="22.875" x2="20.01" y2="22.875" stroke="#FF4141" stroke-width="1.5" stroke-miterlimit="3.999327" stroke-linecap="round" stroke-linejoin="round"/>
<line x1="14.117" y1="17.208" x2="21.2" y2="17.208" stroke="#FF4141" stroke-width="1.5" stroke-miterlimit="3.999327" stroke-linecap="round" stroke-linejoin="round"/>
</svg>
