<svg width="300" height="300" viewBox="0 0 300 300" fill="none" xmlns="http://www.w3.org/2000/svg" xmlns:xlink="http://www.w3.org/1999/xlink">
<path d="M300,150C300,179.667 291.202,208.668 274.72,233.336C258.238,258.002 234.812,277.228 207.402,288.582C179.994,299.936 149.834,302.906 120.737,297.118C91.639,291.33 64.912,277.044 43.934,256.066C22.956,235.088 8.67,208.36 2.882,179.264C-2.906,150.166 0.065,120.006 11.418,92.597C22.771,65.189 41.997,41.762 66.665,25.28C91.332,8.797 120.333,0 150,0C152.364,0 154.704,0.466 156.888,1.37C159.072,2.275 161.057,3.601 162.728,5.272C164.399,6.944 165.725,8.928 166.63,11.112C167.534,13.296 168,15.636 168,18C168,20.364 167.534,22.704 166.63,24.888C165.725,27.072 164.399,29.056 162.728,30.728C161.057,32.399 159.072,33.725 156.888,34.63C154.704,35.534 152.364,36 150,36L150,35.961C127.445,35.961 105.397,42.65 86.644,55.18C67.89,67.711 53.273,85.521 44.642,106.359C36.011,127.197 33.752,150.127 38.153,172.248C42.553,194.369 53.414,214.688 69.363,230.638C85.311,246.586 105.631,257.448 127.752,261.848C149.874,266.248 172.803,263.99 193.641,255.358C214.478,246.726 232.288,232.11 244.82,213.356C257.35,194.603 264.038,172.555 264.038,150L264,150C264,145.226 265.896,140.648 269.272,137.272C272.648,133.896 277.226,132 282,132C286.774,132 291.352,133.896 294.728,137.272C298.104,140.648 300,145.226 300,150Z" clip-rule="evenodd" fill-rule="evenodd" fill="url(#pf_0_95_3015)"/>
<defs>
<linearGradient id="pf_0_95_3015" x1="150" y1="0" x2="308" y2="238" gradientUnits="userSpaceOnUse">
<stop stop-color="#F4B728"/>
<stop offset="0.729" stop-color="#8E6B17" stop-opacity="0.4"/>
</linearGradient>
</defs>
</svg>
