<svg width="40" height="40" viewBox="0 0 40 40" fill="none" xmlns="http://www.w3.org/2000/svg" xmlns:xlink="http://www.w3.org/1999/xlink">
<path d="M28.505,27.671C27.771,28.497 27.846,29.761 28.671,30.495C29.497,31.229 30.761,31.154 31.495,30.329L28.505,27.671ZM38,20L39.495,21.329C40.168,20.571 40.168,19.429 39.495,18.671L38,20ZM31.495,9.671C30.761,8.846 29.497,8.771 28.671,9.505C27.846,10.239 27.771,11.503 28.505,12.329L31.495,9.671ZM10,18C8.895,18 8,18.895 8,20C8,21.105 8.895,22 10,22L10,18ZM24,29C24,27.895 23.105,27 22,27C20.895,27 20,27.895 20,29L24,29ZM16,38L16,40L16,38ZM8,38L8,40L8,38ZM2,31.25L0,31.25L2,31.25ZM2,8.75L0,8.75L2,8.75ZM20,11C20,12.105 20.895,13 22,13C23.105,13 24,12.105 24,11L20,11ZM31.495,30.329L39.495,21.329L36.505,18.671L28.505,27.671L31.495,30.329ZM39.495,18.671L31.495,9.671L28.505,12.329L36.505,21.329L39.495,18.671ZM38,18L10,18L10,22L38,22L38,18ZM20,29L20,31.25L24,31.25L24,29L20,29ZM20,31.25C20,32.581 19.528,33.817 18.748,34.694L21.737,37.352C23.208,35.698 24,33.5 24,31.25L20,31.25ZM18.748,34.694C17.975,35.564 16.98,36 16,36L16,40C18.203,40 20.26,39.013 21.737,37.352L18.748,34.694ZM16,36L8,36L8,40L16,40L16,36ZM8,36C7.02,36 6.025,35.564 5.252,34.694L2.263,37.352C3.74,39.013 5.797,40 8,40L8,36ZM5.252,34.694C4.472,33.817 4,32.581 4,31.25L0,31.25C0,33.5 0.792,35.698 2.263,37.352L5.252,34.694ZM4,31.25L4,8.75L0,8.75L0,31.25L4,31.25ZM4,8.75C4,7.419 4.472,6.183 5.252,5.306L2.263,2.648C0.792,4.302 0,6.5 0,8.75L4,8.75ZM5.252,5.306C6.025,4.436 7.02,4 8,4L8,0C5.797,0 3.74,0.987 2.263,2.648L5.252,5.306ZM8,4L16,4L16,0L8,0L8,4ZM16,4C16.98,4 17.975,4.436 18.748,5.306L21.737,2.648C20.26,0.987 18.203,0 16,0L16,4ZM18.748,5.306C19.528,6.183 20,7.419 20,8.75L24,8.75C24,6.5 23.208,4.302 21.737,2.648L18.748,5.306ZM20,8.75L20,11L24,11L24,8.75L20,8.75Z" fill="#1C1919"/>
</svg>
