<svg width="28" height="28" viewBox="0 0 28 28" fill="none" xmlns="http://www.w3.org/2000/svg" xmlns:xlink="http://www.w3.org/1999/xlink">
<path d="M20.723,1.174C20.447,0.733 20.041,0.389 19.561,0.19C19.08,-0.009 18.55,-0.053 18.043,0.064L14.447,0.89C14.079,0.974 13.696,0.974 13.327,0.89L9.731,0.064C9.225,-0.053 8.694,-0.009 8.214,0.19C7.734,0.389 7.327,0.733 7.051,1.174L5.091,4.302C4.891,4.622 4.621,4.892 4.301,5.094L1.173,7.054C0.733,7.329 0.39,7.735 0.191,8.215C-0.008,8.694 -0.052,9.224 0.063,9.73L0.889,13.33C0.974,13.698 0.974,14.08 0.889,14.448L0.063,18.046C-0.053,18.552 -0.008,19.082 0.191,19.562C0.389,20.042 0.733,20.448 1.173,20.724L4.301,22.684C4.621,22.884 4.891,23.154 5.093,23.474L7.053,26.602C7.617,27.504 8.693,27.95 9.731,27.712L13.327,26.886C13.696,26.801 14.079,26.801 14.447,26.886L18.045,27.712C18.552,27.828 19.082,27.783 19.562,27.584C20.042,27.386 20.448,27.042 20.723,26.602L22.683,23.474C22.883,23.154 23.153,22.884 23.473,22.684L26.603,20.724C27.044,20.448 27.387,20.041 27.586,19.561C27.784,19.08 27.828,18.55 27.711,18.044L26.887,14.448C26.803,14.079 26.803,13.696 26.887,13.328L27.713,9.73C27.83,9.224 27.786,8.694 27.587,8.214C27.388,7.734 27.045,7.328 26.605,7.052L23.475,5.092C23.156,4.891 22.886,4.621 22.685,4.302L20.723,1.174ZM19.717,9.428C19.841,9.2 19.872,8.934 19.803,8.684C19.734,8.434 19.571,8.221 19.348,8.089C19.125,7.958 18.86,7.917 18.608,7.977C18.356,8.037 18.137,8.192 17.997,8.41L12.767,17.262L9.609,14.238C9.516,14.142 9.404,14.065 9.28,14.013C9.156,13.961 9.023,13.935 8.889,13.935C8.754,13.936 8.621,13.964 8.498,14.017C8.375,14.07 8.263,14.147 8.17,14.244C8.078,14.341 8.005,14.456 7.958,14.581C7.91,14.707 7.888,14.841 7.894,14.975C7.899,15.109 7.931,15.241 7.989,15.362C8.046,15.484 8.127,15.592 8.227,15.682L12.295,19.58C12.404,19.684 12.535,19.762 12.678,19.808C12.822,19.855 12.974,19.868 13.123,19.848C13.272,19.827 13.415,19.773 13.54,19.69C13.666,19.606 13.771,19.495 13.847,19.366L19.717,9.428Z" clip-rule="evenodd" fill-rule="evenodd" fill="#F4B728"/>
</svg>
