<?xml version="1.0" encoding="UTF-8" standalone="no"?>
<!DOCTYPE svg PUBLIC "-//W3C//DTD SVG 1.1//EN"
 "http://www.w3.org/Graphics/SVG/1.1/DTD/svg11.dtd">
<!-- Generated by graphviz version 13.1.2 (0)
 -->
<!-- Pages: 1 -->
<svg width="597pt" height="260pt"
 viewBox="0.00 0.00 597.00 260.00" xmlns="http://www.w3.org/2000/svg" xmlns:xlink="http://www.w3.org/1999/xlink">
<g id="graph0" class="graph" transform="scale(1 1) rotate(0) translate(4 256)">
<polygon fill="white" stroke="none" points="-4,4 -4,-256 593,-256 593,4 -4,4"/>
<!-- 0 -->
<g id="node1" class="node">
<title>0</title>
<polygon fill="none" stroke="black" points="309.75,-252 214.25,-252 214.25,-216 309.75,-216 309.75,-252"/>
<text xml:space="preserve" text-anchor="middle" x="262" y="-228.95" font-family="Times,serif" font-size="14.00">libtonode&#45;tests</text>
</g>
<!-- 1 -->
<g id="node2" class="node">
<title>1</title>
<polygon fill="none" stroke="black" points="82,-108 0,-108 0,-72 82,-72 82,-108"/>
<text xml:space="preserve" text-anchor="middle" x="41" y="-84.95" font-family="Times,serif" font-size="14.00">pepper&#45;sync</text>
</g>
<!-- 0&#45;&gt;1 -->
<g id="edge1" class="edge">
<title>0&#45;&gt;1</title>
<path fill="none" stroke="black" d="M215.73,-215.6C193.57,-206.38 167.11,-194.06 145,-180 115.88,-161.47 86.32,-135.32 66.2,-116.16"/>
<polygon fill="black" stroke="black" points="68.9,-113.89 59.27,-109.47 64.03,-118.93 68.9,-113.89"/>
</g>
<!-- 4 -->
<g id="node5" class="node">
<title>4</title>
<polygon fill="none" stroke="black" points="568.12,-108 459.88,-108 459.88,-72 568.12,-72 568.12,-108"/>
<text xml:space="preserve" text-anchor="middle" x="514" y="-84.95" font-family="Times,serif" font-size="14.00">zingo&#45;testvectors</text>
</g>
<!-- 0&#45;&gt;4 -->
<g id="edge3" class="edge">
<title>0&#45;&gt;4</title>
<path fill="none" stroke="black" d="M291.16,-215.63C321.81,-197.46 371.53,-168.27 415,-144 433.21,-133.83 453.5,-122.9 470.94,-113.63"/>
<polygon fill="black" stroke="black" points="472.31,-116.86 479.5,-109.09 469.03,-110.68 472.31,-116.86"/>
</g>
<!-- 5 -->
<g id="node6" class="node">
<title>5</title>
<polygon fill="none" stroke="black" points="274.12,-180 213.88,-180 213.88,-144 274.12,-144 274.12,-180"/>
<text xml:space="preserve" text-anchor="middle" x="244" y="-156.95" font-family="Times,serif" font-size="14.00">zingolib</text>
</g>
<!-- 0&#45;&gt;5 -->
<g id="edge4" class="edge">
<title>0&#45;&gt;5</title>
<path fill="none" stroke="black" d="M257.55,-215.7C255.65,-208.32 253.39,-199.52 251.26,-191.25"/>
<polygon fill="black" stroke="black" points="254.66,-190.38 248.78,-181.57 247.88,-192.13 254.66,-190.38"/>
</g>
<!-- 9 -->
<g id="node10" class="node">
<title>9</title>
<ellipse fill="none" stroke="black" cx="357" cy="-90" rx="84.62" ry="18"/>
<text xml:space="preserve" text-anchor="middle" x="357" y="-84.95" font-family="Times,serif" font-size="14.00">zingo&#45;infra&#45;services</text>
</g>
<!-- 0&#45;&gt;9 -->
<g id="edge2" class="edge">
<title>0&#45;&gt;9</title>
<path fill="none" stroke="black" d="M273.65,-215.59C290.05,-191.08 320.08,-146.19 339.26,-117.52"/>
<polygon fill="black" stroke="black" points="342.06,-119.63 344.71,-109.37 336.24,-115.73 342.06,-119.63"/>
</g>
<!-- 2 -->
<g id="node3" class="node">
<title>2</title>
<polygon fill="none" stroke="black" points="118.88,-36 33.12,-36 33.12,0 118.88,0 118.88,-36"/>
<text xml:space="preserve" text-anchor="middle" x="76" y="-12.95" font-family="Times,serif" font-size="14.00">zingo&#45;memo</text>
</g>
<!-- 1&#45;&gt;2 -->
<g id="edge5" class="edge">
<title>1&#45;&gt;2</title>
<path fill="none" stroke="black" d="M49.65,-71.7C53.47,-64.07 58.04,-54.92 62.3,-46.4"/>
<polygon fill="black" stroke="black" points="65.43,-47.97 66.77,-37.46 59.17,-44.84 65.43,-47.97"/>
</g>
<!-- 3 -->
<g id="node4" class="node">
<title>3</title>
<polygon fill="none" stroke="black" points="289.12,-36 198.88,-36 198.88,0 289.12,0 289.12,-36"/>
<text xml:space="preserve" text-anchor="middle" x="244" y="-12.95" font-family="Times,serif" font-size="14.00">zingo&#45;netutils</text>
</g>
<!-- 1&#45;&gt;3 -->
<g id="edge6" class="edge">
<title>1&#45;&gt;3</title>
<path fill="none" stroke="black" d="M82.08,-74.83C112.5,-64.34 154.31,-49.93 187.82,-38.37"/>
<polygon fill="black" stroke="black" points="188.64,-41.79 196.95,-35.22 186.36,-35.17 188.64,-41.79"/>
</g>
<!-- 5&#45;&gt;1 -->
<g id="edge7" class="edge">
<title>5&#45;&gt;1</title>
<path fill="none" stroke="black" d="M213.61,-150.52C181.66,-139.5 130.82,-121.97 92.58,-108.79"/>
<polygon fill="black" stroke="black" points="94.18,-105.64 83.58,-105.68 91.9,-112.25 94.18,-105.64"/>
</g>
<!-- 5&#45;&gt;2 -->
<g id="edge9" class="edge">
<title>5&#45;&gt;2</title>
<path fill="none" stroke="black" d="M213.54,-152.53C188.55,-144.37 153.43,-129.98 129,-108 110.14,-91.03 95.97,-65.73 87.05,-46.44"/>
<polygon fill="black" stroke="black" points="90.36,-45.28 83.13,-37.54 83.96,-48.1 90.36,-45.28"/>
</g>
<!-- 5&#45;&gt;3 -->
<g id="edge10" class="edge">
<title>5&#45;&gt;3</title>
<path fill="none" stroke="black" d="M244,-143.59C244,-119.61 244,-76.14 244,-47.42"/>
<polygon fill="black" stroke="black" points="247.5,-47.62 244,-37.62 240.5,-47.62 247.5,-47.62"/>
</g>
<!-- 5&#45;&gt;4 -->
<g id="edge12" class="edge">
<title>5&#45;&gt;4</title>
<path fill="none" stroke="black" stroke-dasharray="1,5" d="M274.55,-153.31C312.91,-143.62 381.02,-126.33 448.55,-108.63"/>
<polygon fill="black" stroke="black" points="449.13,-112.1 457.91,-106.17 447.35,-105.33 449.13,-112.1"/>
</g>
<!-- 6 -->
<g id="node7" class="node">
<title>6</title>
<polygon fill="none" stroke="black" points="215.75,-108 138.25,-108 138.25,-72 215.75,-72 215.75,-108"/>
<text xml:space="preserve" text-anchor="middle" x="177" y="-84.95" font-family="Times,serif" font-size="14.00">zingo&#45;price</text>
</g>
<!-- 5&#45;&gt;6 -->
<g id="edge11" class="edge">
<title>5&#45;&gt;6</title>
<path fill="none" stroke="black" d="M227.44,-143.7C219.57,-135.47 210.01,-125.48 201.33,-116.42"/>
<polygon fill="black" stroke="black" points="203.86,-114 194.42,-109.2 198.8,-118.84 203.86,-114"/>
</g>
<!-- 5&#45;&gt;9 -->
<g id="edge8" class="edge">
<title>5&#45;&gt;9</title>
<path fill="none" stroke="black" d="M272.22,-143.52C286.95,-134.4 305.13,-123.13 320.87,-113.38"/>
<polygon fill="black" stroke="black" points="322.36,-116.58 329.01,-108.34 318.67,-110.63 322.36,-116.58"/>
</g>
<!-- 7 -->
<g id="node8" class="node">
<title>7</title>
<polygon fill="none" stroke="black" points="500.12,-252 409.88,-252 409.88,-216 500.12,-216 500.12,-252"/>
<text xml:space="preserve" text-anchor="middle" x="455" y="-228.95" font-family="Times,serif" font-size="14.00">darkside&#45;tests</text>
</g>
<!-- 7&#45;&gt;3 -->
<g id="edge14" class="edge">
<title>7&#45;&gt;3</title>
<path fill="none" stroke="black" d="M485.31,-215.57C533.94,-185.47 619.8,-122.15 577,-72 542.17,-31.18 386.46,-21.65 300.85,-19.52"/>
<polygon fill="black" stroke="black" points="301.1,-16.03 291.03,-19.31 300.95,-23.02 301.1,-16.03"/>
</g>
<!-- 7&#45;&gt;4 -->
<g id="edge15" class="edge">
<title>7&#45;&gt;4</title>
<path fill="none" stroke="black" d="M468.49,-215.68C475.72,-205.7 484.29,-192.67 490,-180 498.75,-160.59 504.89,-137.31 508.77,-119.43"/>
<polygon fill="black" stroke="black" points="512.17,-120.27 510.74,-109.77 505.31,-118.87 512.17,-120.27"/>
</g>
<!-- 7&#45;&gt;5 -->
<g id="edge16" class="edge">
<title>7&#45;&gt;5</title>
<path fill="none" stroke="black" d="M409.48,-217.9C372.48,-205.62 320.74,-188.46 285.01,-176.61"/>
<polygon fill="black" stroke="black" points="286.5,-173.41 275.91,-173.59 284.3,-180.06 286.5,-173.41"/>
</g>
<!-- 7&#45;&gt;9 -->
<g id="edge13" class="edge">
<title>7&#45;&gt;9</title>
<path fill="none" stroke="black" d="M442.98,-215.59C426.07,-191.08 395.09,-146.19 375.3,-117.52"/>
<polygon fill="black" stroke="black" points="378.23,-115.6 369.67,-109.36 372.47,-119.57 378.23,-115.6"/>
</g>
<!-- 8 -->
<g id="node9" class="node">
<title>8</title>
<polygon fill="none" stroke="black" points="392,-252 328,-252 328,-216 392,-216 392,-252"/>
<text xml:space="preserve" text-anchor="middle" x="360" y="-228.95" font-family="Times,serif" font-size="14.00">zingo&#45;cli</text>
</g>
<!-- 8&#45;&gt;1 -->
<g id="edge17" class="edge">
<title>8&#45;&gt;1</title>
<path fill="none" stroke="black" d="M327.88,-219.37C324.89,-218.2 321.9,-217.06 319,-216 269.08,-197.81 253.91,-200.77 205,-180 192.55,-174.71 126.56,-138.45 82.18,-113.88"/>
<polygon fill="black" stroke="black" points="84,-110.89 73.56,-109.1 80.61,-117.01 84,-110.89"/>
</g>
<!-- 8&#45;&gt;4 -->
<g id="edge19" class="edge">
<title>8&#45;&gt;4</title>
<path fill="none" stroke="black" d="M378.88,-215.59C406.05,-190.54 456.28,-144.22 487.25,-115.66"/>
<polygon fill="black" stroke="black" points="489.35,-118.49 494.33,-109.14 484.61,-113.34 489.35,-118.49"/>
</g>
<!-- 8&#45;&gt;5 -->
<g id="edge20" class="edge">
<title>8&#45;&gt;5</title>
<path fill="none" stroke="black" d="M331.03,-215.52C316.25,-206.6 298.07,-195.63 282.17,-186.03"/>
<polygon fill="black" stroke="black" points="284.27,-183.21 273.9,-181.04 280.65,-189.21 284.27,-183.21"/>
</g>
<!-- 8&#45;&gt;9 -->
<g id="edge18" class="edge">
<title>8&#45;&gt;9</title>
<path fill="none" stroke="black" d="M359.63,-215.59C359.13,-191.61 358.21,-148.14 357.6,-119.42"/>
<polygon fill="black" stroke="black" points="361.1,-119.55 357.39,-109.62 354.11,-119.7 361.1,-119.55"/>
</g>
</g>
</svg>
