<?xml version="1.0" encoding="UTF-8" standalone="no"?>
<!DOCTYPE svg PUBLIC "-//W3C//DTD SVG 1.1//EN"
 "http://www.w3.org/Graphics/SVG/1.1/DTD/svg11.dtd">
<!-- Generated by graphviz version 13.1.2 (0)
 -->
<!-- Pages: 1 -->
<svg width="610pt" height="260pt"
 viewBox="0.00 0.00 610.00 260.00" xmlns="http://www.w3.org/2000/svg" xmlns:xlink="http://www.w3.org/1999/xlink">
<g id="graph0" class="graph" transform="scale(1 1) rotate(0) translate(4 256)">
<polygon fill="white" stroke="none" points="-4,4 -4,-256 606.12,-256 606.12,4 -4,4"/>
<!-- 0 -->
<g id="node1" class="node">
<title>0</title>
<polygon fill="none" stroke="black" points="121.75,-252 26.25,-252 26.25,-216 121.75,-216 121.75,-252"/>
<text xml:space="preserve" text-anchor="middle" x="74" y="-228.95" font-family="Times,serif" font-size="14.00">libtonode&#45;tests</text>
</g>
<!-- 1 -->
<g id="node2" class="node">
<title>1</title>
<polygon fill="none" stroke="black" points="82,-108 0,-108 0,-72 82,-72 82,-108"/>
<text xml:space="preserve" text-anchor="middle" x="41" y="-84.95" font-family="Times,serif" font-size="14.00">pepper&#45;sync</text>
</g>
<!-- 0&#45;&gt;1 -->
<g id="edge1" class="edge">
<title>0&#45;&gt;1</title>
<path fill="none" stroke="black" d="M69.95,-215.59C64.36,-191.5 54.19,-147.75 47.52,-119.03"/>
<polygon fill="black" stroke="black" points="50.99,-118.53 45.32,-109.59 44.17,-120.12 50.99,-118.53"/>
</g>
<!-- 4 -->
<g id="node5" class="node">
<title>4</title>
<polygon fill="none" stroke="black" points="222.12,-180 161.88,-180 161.88,-144 222.12,-144 222.12,-180"/>
<text xml:space="preserve" text-anchor="middle" x="192" y="-156.95" font-family="Times,serif" font-size="14.00">zingolib</text>
</g>
<!-- 0&#45;&gt;4 -->
<g id="edge2" class="edge">
<title>0&#45;&gt;4</title>
<path fill="none" stroke="black" d="M103.47,-215.52C118.51,-206.6 136.99,-195.63 153.18,-186.03"/>
<polygon fill="black" stroke="black" points="154.79,-189.15 161.6,-181.03 151.22,-183.12 154.79,-189.15"/>
</g>
<!-- 2 -->
<g id="node3" class="node">
<title>2</title>
<polygon fill="none" stroke="black" points="118.88,-36 33.12,-36 33.12,0 118.88,0 118.88,-36"/>
<text xml:space="preserve" text-anchor="middle" x="76" y="-12.95" font-family="Times,serif" font-size="14.00">zingo&#45;memo</text>
</g>
<!-- 1&#45;&gt;2 -->
<g id="edge3" class="edge">
<title>1&#45;&gt;2</title>
<path fill="none" stroke="black" d="M49.65,-71.7C53.47,-64.07 58.04,-54.92 62.3,-46.4"/>
<polygon fill="black" stroke="black" points="65.43,-47.97 66.77,-37.46 59.17,-44.84 65.43,-47.97"/>
</g>
<!-- 3 -->
<g id="node4" class="node">
<title>3</title>
<polygon fill="none" stroke="black" points="602.12,-36 511.88,-36 511.88,0 602.12,0 602.12,-36"/>
<text xml:space="preserve" text-anchor="middle" x="557" y="-12.95" font-family="Times,serif" font-size="14.00">zingo&#45;netutils</text>
</g>
<!-- 1&#45;&gt;3 -->
<g id="edge4" class="edge">
<title>1&#45;&gt;3</title>
<path fill="none" stroke="black" d="M82.09,-80.47C96.84,-77.56 113.63,-74.43 129,-72 261.47,-51.03 418.12,-33.45 500.24,-24.79"/>
<polygon fill="black" stroke="black" points="500.48,-28.29 510.06,-23.76 499.75,-21.33 500.48,-28.29"/>
</g>
<!-- 4&#45;&gt;1 -->
<g id="edge5" class="edge">
<title>4&#45;&gt;1</title>
<path fill="none" stroke="black" d="M161.44,-146.83C140.65,-137.19 112.7,-124.24 88.97,-113.24"/>
<polygon fill="black" stroke="black" points="90.66,-110.16 80.11,-109.13 87.72,-116.51 90.66,-110.16"/>
</g>
<!-- 4&#45;&gt;2 -->
<g id="edge7" class="edge">
<title>4&#45;&gt;2</title>
<path fill="none" stroke="black" d="M167.57,-143.56C155.13,-133.95 140.29,-121.29 129,-108 112.94,-89.1 98.8,-64.73 89.17,-46.27"/>
<polygon fill="black" stroke="black" points="92.38,-44.85 84.73,-37.52 86.14,-48.02 92.38,-44.85"/>
</g>
<!-- 4&#45;&gt;3 -->
<g id="edge8" class="edge">
<title>4&#45;&gt;3</title>
<path fill="none" stroke="black" d="M222.61,-160.61C298.55,-159 492.74,-150.69 538,-108 554.18,-92.74 558.31,-67.35 558.75,-47.58"/>
<polygon fill="black" stroke="black" points="562.25,-47.62 558.64,-37.66 555.25,-47.7 562.25,-47.62"/>
</g>
<!-- 5 -->
<g id="node6" class="node">
<title>5</title>
<polygon fill="none" stroke="black" points="246.12,-108 137.88,-108 137.88,-72 246.12,-72 246.12,-108"/>
<text xml:space="preserve" text-anchor="middle" x="192" y="-84.95" font-family="Times,serif" font-size="14.00">zingo&#45;testvectors</text>
</g>
<!-- 4&#45;&gt;5 -->
<g id="edge10" class="edge">
<title>4&#45;&gt;5</title>
<path fill="none" stroke="black" stroke-dasharray="1,5" d="M192,-143.7C192,-136.41 192,-127.73 192,-119.54"/>
<polygon fill="black" stroke="black" points="195.5,-119.62 192,-109.62 188.5,-119.62 195.5,-119.62"/>
</g>
<!-- 6 -->
<g id="node7" class="node">
<title>6</title>
<polygon fill="none" stroke="black" points="341.75,-108 264.25,-108 264.25,-72 341.75,-72 341.75,-108"/>
<text xml:space="preserve" text-anchor="middle" x="303" y="-84.95" font-family="Times,serif" font-size="14.00">zingo&#45;price</text>
</g>
<!-- 4&#45;&gt;6 -->
<g id="edge9" class="edge">
<title>4&#45;&gt;6</title>
<path fill="none" stroke="black" d="M219.72,-143.52C233.74,-134.68 250.93,-123.84 266.05,-114.3"/>
<polygon fill="black" stroke="black" points="267.76,-117.36 274.35,-109.07 264.02,-111.44 267.76,-117.36"/>
</g>
<!-- 9 -->
<g id="node10" class="node">
<title>9</title>
<ellipse fill="none" stroke="black" stroke-dasharray="5,2" cx="444" cy="-90" rx="84.62" ry="18"/>
<text xml:space="preserve" text-anchor="middle" x="444" y="-84.95" font-family="Times,serif" font-size="14.00">zingo&#45;infra&#45;services</text>
</g>
<!-- 4&#45;&gt;9 -->
<g id="edge6" class="edge">
<title>4&#45;&gt;9</title>
<path fill="none" stroke="black" stroke-dasharray="1,5" d="M222.4,-152.56C262.03,-141.55 332.29,-122.03 383.09,-107.92"/>
<polygon fill="black" stroke="black" points="383.78,-111.36 392.48,-105.31 381.91,-104.62 383.78,-111.36"/>
</g>
<!-- 7 -->
<g id="node8" class="node">
<title>7</title>
<polygon fill="none" stroke="black" points="483.12,-252 392.88,-252 392.88,-216 483.12,-216 483.12,-252"/>
<text xml:space="preserve" text-anchor="middle" x="438" y="-228.95" font-family="Times,serif" font-size="14.00">darkside&#45;tests</text>
</g>
<!-- 7&#45;&gt;3 -->
<g id="edge11" class="edge">
<title>7&#45;&gt;3</title>
<path fill="none" stroke="black" d="M464.74,-215.62C494.7,-194.38 541.62,-155.33 561,-108 568.8,-88.95 567.41,-65.66 564.28,-47.68"/>
<polygon fill="black" stroke="black" points="567.72,-47.04 562.29,-37.95 560.86,-48.45 567.72,-47.04"/>
</g>
<!-- 7&#45;&gt;4 -->
<g id="edge12" class="edge">
<title>7&#45;&gt;4</title>
<path fill="none" stroke="black" d="M392.59,-220.08C347,-207.11 277.37,-187.29 233.29,-174.75"/>
<polygon fill="black" stroke="black" points="234.43,-171.43 223.85,-172.06 232.51,-178.17 234.43,-171.43"/>
</g>
<!-- 8 -->
<g id="node9" class="node">
<title>8</title>
<polygon fill="none" stroke="black" points="217,-252 153,-252 153,-216 217,-216 217,-252"/>
<text xml:space="preserve" text-anchor="middle" x="185" y="-228.95" font-family="Times,serif" font-size="14.00">zingo&#45;cli</text>
</g>
<!-- 8&#45;&gt;1 -->
<g id="edge13" class="edge">
<title>8&#45;&gt;1</title>
<path fill="none" stroke="black" d="M167.34,-215.59C142.05,-190.65 95.37,-144.62 66.38,-116.03"/>
<polygon fill="black" stroke="black" points="69.01,-113.7 59.43,-109.17 64.09,-118.69 69.01,-113.7"/>
</g>
<!-- 8&#45;&gt;4 -->
<g id="edge14" class="edge">
<title>8&#45;&gt;4</title>
<path fill="none" stroke="black" d="M186.73,-215.7C187.46,-208.41 188.33,-199.73 189.15,-191.54"/>
<polygon fill="black" stroke="black" points="192.63,-191.91 190.14,-181.61 185.66,-191.21 192.63,-191.91"/>
</g>
</g>
</svg>
