<svg width="34" height="34" viewBox="0 0 34 34" fill="none" xmlns="http://www.w3.org/2000/svg" xmlns:xlink="http://www.w3.org/1999/xlink">
<path d="M6.965,16.98C6.965,16.582 7.123,16.201 7.404,15.919C7.685,15.638 8.067,15.48 8.465,15.48L15.451,15.48L15.451,8.494C15.451,8.096 15.609,7.715 15.89,7.433C16.171,7.152 16.553,6.994 16.951,6.994C17.349,6.994 17.73,7.152 18.012,7.433C18.293,7.715 18.451,8.096 18.451,8.494L18.451,15.48L25.437,15.48C25.835,15.48 26.216,15.638 26.498,15.919C26.779,16.201 26.937,16.582 26.937,16.98C26.937,17.378 26.779,17.76 26.498,18.041C26.216,18.322 25.835,18.48 25.437,18.48L18.451,18.48L18.451,25.466C18.451,25.864 18.293,26.246 18.012,26.527C17.73,26.808 17.349,26.966 16.951,26.966C16.553,26.966 16.171,26.808 15.89,26.527C15.609,26.246 15.451,25.864 15.451,25.466L15.451,18.48L8.465,18.48C8.067,18.48 7.685,18.322 7.404,18.041C7.123,17.76 6.965,17.378 6.965,16.98Z" fill="#000000"/>
<path d="M7.585,0.518C13.809,-0.173 20.092,-0.173 26.317,0.518C29.971,0.926 32.921,3.804 33.349,7.478C34.089,13.792 34.089,20.17 33.349,26.484C32.919,30.158 29.969,33.034 26.317,33.444C20.092,34.134 13.809,34.134 7.585,33.444C3.931,33.034 0.981,30.158 0.553,26.484C-0.184,20.17 -0.184,13.791 0.553,7.478C0.981,3.804 3.933,0.926 7.585,0.518ZM25.985,3.498C19.98,2.832 13.921,2.832 7.917,3.498C6.805,3.621 5.768,4.115 4.972,4.901C4.176,5.687 3.668,6.718 3.531,7.828C2.819,13.91 2.819,20.054 3.531,26.136C3.669,27.245 4.176,28.276 4.972,29.061C5.768,29.846 6.805,30.34 7.917,30.464C13.871,31.128 20.031,31.128 25.985,30.464C27.095,30.34 28.132,29.846 28.928,29.06C29.723,28.275 30.231,27.245 30.369,26.136C31.08,20.054 31.08,13.91 30.369,7.828C30.23,6.719 29.722,5.689 28.927,4.904C28.132,4.119 27.095,3.625 25.985,3.502Z" clip-rule="evenodd" fill-rule="evenodd" fill="#000000"/>
</svg>
