<svg width="36" height="36" viewBox="0 0 36 36" fill="none" xmlns="http://www.w3.org/2000/svg" xmlns:xlink="http://www.w3.org/1999/xlink">
<path d="M30.259,10.964C31.084,11.046 31.818,10.444 31.9,9.62C31.982,8.795 31.38,8.061 30.555,7.979L30.259,10.964ZM7.797,9.188L7.944,10.681L7.948,10.681L7.797,9.188ZM4.761,7.979C3.936,8.06 3.334,8.794 3.414,9.618C3.495,10.443 4.229,11.045 5.054,10.965L4.761,7.979ZM30.555,7.979C25.79,7.507 20.995,7.263 16.212,7.263L16.212,10.263C20.893,10.263 25.59,10.502 30.259,10.964L30.555,7.979ZM16.212,7.263C13.357,7.263 10.501,7.408 7.646,7.696L7.948,10.681C10.703,10.402 13.458,10.263 16.212,10.263L16.212,7.263ZM7.651,7.695L4.761,7.979L5.054,10.965L7.944,10.681L7.651,7.695Z" fill="#FF4141"/>
<path d="M11.22,7.792C11.083,8.609 11.634,9.383 12.451,9.52C13.268,9.657 14.041,9.106 14.179,8.289L11.22,7.792ZM13.011,6.185L11.532,5.936L11.532,5.937L13.011,6.185ZM22.304,6.199L20.824,6.441L20.825,6.449L22.304,6.199ZM21.137,8.291C21.275,9.108 22.049,9.658 22.866,9.52C23.683,9.382 24.233,8.607 24.095,7.791L21.137,8.291ZM14.179,8.289L14.49,6.433L11.532,5.937L11.22,7.792L14.179,8.289ZM14.49,6.434C14.55,6.075 14.589,5.858 14.642,5.682C14.69,5.523 14.724,5.49 14.719,5.497C14.663,5.56 14.762,5.333 15.802,5.333L15.802,2.333C14.447,2.333 13.264,2.61 12.468,3.512C11.76,4.316 11.625,5.383 11.532,5.936L14.49,6.434ZM15.802,5.333L19.513,5.333L19.513,2.333L15.802,2.333L15.802,5.333ZM19.513,5.333C20.011,5.333 20.298,5.39 20.452,5.442C20.525,5.466 20.562,5.487 20.577,5.497C20.59,5.506 20.593,5.51 20.594,5.511C20.595,5.512 20.631,5.552 20.678,5.709C20.73,5.883 20.768,6.096 20.824,6.441L23.785,5.958C23.696,5.412 23.562,4.354 22.86,3.544C22.07,2.635 20.891,2.333 19.513,2.333L19.513,5.333ZM20.825,6.449L21.137,8.291L24.095,7.791L23.783,5.949L20.825,6.449Z" fill="#FF4141"/>
<path d="M28.858,14.045C28.912,13.218 28.285,12.505 27.458,12.451C26.631,12.398 25.918,13.025 25.865,13.852L28.858,14.045ZM26.441,28.214L27.937,28.319L27.938,28.311L26.441,28.214ZM8.874,28.214L7.377,28.311L7.378,28.319L8.874,28.214ZM9.45,13.852C9.397,13.025 8.683,12.398 7.857,12.451C7.03,12.505 6.403,13.218 6.456,14.045L9.45,13.852ZM25.865,13.852L24.944,28.118L27.938,28.311L28.858,14.045L25.865,13.852ZM24.944,28.109C24.904,28.688 24.871,29.112 24.798,29.474C24.729,29.821 24.64,30.002 24.557,30.111C24.444,30.258 24.03,30.667 22.205,30.667L22.205,33.667C24.332,33.667 25.958,33.211 26.936,31.938C27.398,31.337 27.618,30.669 27.739,30.066C27.858,29.479 27.9,28.853 27.937,28.319L24.944,28.109ZM22.205,30.667L13.11,30.667L13.11,33.667L22.205,33.667L22.205,30.667ZM13.11,30.667C11.285,30.667 10.871,30.258 10.758,30.111C10.674,30.002 10.586,29.821 10.516,29.474C10.443,29.112 10.411,28.688 10.37,28.109L7.378,28.319C7.415,28.853 7.457,29.479 7.575,30.066C7.697,30.669 7.917,31.337 8.379,31.938C9.356,33.211 10.982,33.667 13.11,33.667L13.11,30.667ZM10.371,28.118L9.45,13.852L6.456,14.045L7.377,28.311L10.371,28.118Z" fill="#FF4141"/>
<line x1="15.291" y1="22.875" x2="20.009" y2="22.875" stroke="#FF4141" stroke-width="1.5" stroke-miterlimit="3.999327" stroke-linecap="round" stroke-linejoin="round"/>
<line x1="14.115" y1="17.208" x2="21.199" y2="17.208" stroke="#FF4141" stroke-width="1.5" stroke-miterlimit="3.999327" stroke-linecap="round" stroke-linejoin="round"/>
</svg>
