<svg width="40" height="40" viewBox="0 0 40 40" fill="none" xmlns="http://www.w3.org/2000/svg" xmlns:xlink="http://www.w3.org/1999/xlink">
<path d="M13.3,2L13.3,3.5L13.302,3.5L13.3,2ZM5.76,2L5.758,3.5L5.76,3.5L5.76,2ZM2,5.76L3.5,5.76L3.5,5.758L2,5.76ZM2,13.3L3.5,13.302L3.5,13.3L2,13.3ZM5.76,17.079L5.753,18.579L5.76,18.579L5.76,17.079ZM13.3,17.079L13.302,15.579L13.3,15.579L13.3,17.079ZM17.079,13.3L15.579,13.3L15.579,13.302L17.079,13.3ZM17.079,5.76L18.579,5.76L18.579,5.753L17.079,5.76ZM34.24,2L34.24,3.5L34.242,3.5L34.24,2ZM26.7,2L26.698,3.5L26.7,3.5L26.7,2ZM22.921,5.76L21.421,5.753L21.421,5.76L22.921,5.76ZM22.921,13.3L21.421,13.3L21.421,13.301L22.921,13.3ZM26.7,17.079L26.699,18.579L26.7,18.579L26.7,17.079ZM34.24,17.079L34.24,18.579L34.247,18.579L34.24,17.079ZM38,13.3L36.5,13.3L36.5,13.302L38,13.3ZM38,5.76L36.5,5.758L36.5,5.76L38,5.76ZM34.24,24.419C35.069,24.419 35.74,23.747 35.74,22.919C35.74,22.09 35.069,21.419 34.24,21.419L34.24,24.419ZM26.7,22.919L26.698,24.419L26.7,24.419L26.7,22.919ZM22.921,26.68L21.421,26.675L21.421,26.68L22.921,26.68ZM22.921,34.221L24.421,34.223L24.421,34.221L22.921,34.221ZM26.7,38L26.7,36.5L26.698,36.5L26.7,38ZM34.24,38L34.24,39.5L34.247,39.5L34.24,38ZM38,34.221L36.5,34.221L36.5,34.223L38,34.221ZM38,26.68L36.5,26.679L36.5,26.68L38,26.68ZM34.239,21.421C33.41,21.422 32.74,22.094 32.74,22.922C32.741,23.751 33.414,24.422 34.242,24.421L34.239,21.421ZM13.3,24.419C14.129,24.419 14.8,23.747 14.8,22.919C14.8,22.09 14.129,21.419 13.3,21.419L13.3,24.419ZM5.76,22.919L5.76,21.419L5.751,21.419L5.76,22.919ZM2,26.7L3.5,26.7L3.5,26.7L2,26.7ZM2,34.24L3.5,34.242L3.5,34.24L2,34.24ZM5.76,38L5.76,36.5L5.758,36.5L5.76,38ZM13.3,38L13.302,36.5L13.3,36.5L13.3,38ZM17.079,34.24L18.579,34.247L18.579,34.24L17.079,34.24ZM17.079,26.7L15.579,26.698L15.579,26.7L17.079,26.7ZM13.299,21.421C12.47,21.422 11.799,22.094 11.8,22.922C11.801,23.751 12.473,24.422 13.302,24.421L13.299,21.421ZM13.3,0.5L5.76,0.5L5.76,3.5L13.3,3.5L13.3,0.5ZM5.761,0.5C5.07,0.499 4.386,0.635 3.747,0.899L4.894,3.671C5.168,3.558 5.461,3.5 5.758,3.5L5.761,0.5ZM3.747,0.899C3.108,1.163 2.528,1.551 2.039,2.039L4.161,4.161C4.37,3.951 4.619,3.785 4.894,3.671L3.747,0.899ZM2.039,2.039C1.551,2.528 1.163,3.108 0.899,3.747L3.671,4.894C3.785,4.619 3.951,4.37 4.161,4.161L2.039,2.039ZM0.899,3.747C0.635,4.386 0.499,5.07 0.5,5.761L3.5,5.758C3.5,5.461 3.558,5.168 3.671,4.894L0.899,3.747ZM0.5,5.76L0.5,13.3L3.5,13.3L3.5,5.76L0.5,5.76ZM0.5,13.299C0.499,14.695 1.051,16.035 2.035,17.024L4.162,14.909C3.738,14.482 3.499,13.904 3.5,13.302L0.5,13.299ZM2.035,17.024C3.02,18.014 4.357,18.573 5.753,18.579L5.766,15.579C5.164,15.577 4.587,15.336 4.162,14.909L2.035,17.024ZM5.76,18.579L13.3,18.579L13.3,15.579L5.76,15.579L5.76,18.579ZM13.299,18.579C13.992,18.58 14.679,18.444 15.32,18.179L14.174,15.406C13.897,15.521 13.601,15.579 13.302,15.579L13.299,18.579ZM15.32,18.179C15.961,17.914 16.544,17.525 17.034,17.034L14.913,14.913C14.701,15.124 14.45,15.292 14.174,15.406L15.32,18.179ZM17.034,17.034C17.525,16.544 17.914,15.961 18.179,15.32L15.406,14.174C15.292,14.45 15.124,14.701 14.913,14.913L17.034,17.034ZM18.179,15.32C18.444,14.679 18.58,13.992 18.579,13.299L15.579,13.302C15.579,13.601 15.521,13.897 15.406,14.174L18.179,15.32ZM18.579,13.3L18.579,5.76L15.579,5.76L15.579,13.3L18.579,13.3ZM18.579,5.753C18.573,4.357 18.014,3.02 17.024,2.035L14.909,4.162C15.336,4.587 15.577,5.164 15.579,5.766L18.579,5.753ZM17.024,2.035C16.035,1.051 14.695,0.499 13.299,0.5L13.302,3.5C13.904,3.499 14.482,3.738 14.909,4.162L17.024,2.035ZM34.24,0.5L26.7,0.5L26.7,3.5L34.24,3.5L34.24,0.5ZM26.701,0.5C25.305,0.499 23.965,1.051 22.976,2.035L25.091,4.162C25.518,3.738 26.096,3.499 26.698,3.5L26.701,0.5ZM22.976,2.035C21.986,3.02 21.427,4.357 21.421,5.753L24.421,5.766C24.423,5.164 24.664,4.587 25.091,4.162L22.976,2.035ZM21.421,5.76L21.421,13.3L24.421,13.3L24.421,5.76L21.421,5.76ZM21.421,13.301C21.422,14.701 21.978,16.043 22.968,17.032L25.089,14.911C24.661,14.484 24.421,13.904 24.421,13.299L21.421,13.301ZM22.968,17.032C23.957,18.022 25.299,18.578 26.699,18.579L26.701,15.579C26.096,15.579 25.516,15.339 25.089,14.911L22.968,17.032ZM26.7,18.579L34.24,18.579L34.24,15.579L26.7,15.579L26.7,18.579ZM34.247,18.579C35.643,18.573 36.98,18.014 37.965,17.024L35.838,14.909C35.413,15.336 34.836,15.577 34.234,15.579L34.247,18.579ZM37.965,17.024C38.949,16.035 39.501,14.695 39.5,13.299L36.5,13.302C36.501,13.904 36.262,14.482 35.838,14.909L37.965,17.024ZM39.5,13.3L39.5,5.76L36.5,5.76L36.5,13.3L39.5,13.3ZM39.5,5.761C39.501,5.07 39.365,4.386 39.101,3.747L36.329,4.894C36.442,5.168 36.5,5.461 36.5,5.758L39.5,5.761ZM39.101,3.747C38.837,3.108 38.449,2.528 37.961,2.039L35.839,4.161C36.049,4.37 36.215,4.619 36.329,4.894L39.101,3.747ZM37.961,2.039C37.472,1.551 36.892,1.163 36.253,0.899L35.106,3.671C35.381,3.785 35.63,3.951 35.839,4.161L37.961,2.039ZM36.253,0.899C35.614,0.635 34.93,0.499 34.239,0.5L34.242,3.5C34.539,3.5 34.832,3.558 35.106,3.671L36.253,0.899ZM34.24,21.419L26.7,21.419L26.7,24.419L34.24,24.419L34.24,21.419ZM26.701,21.419C25.305,21.417 23.964,21.97 22.975,22.955L25.091,25.082C25.518,24.657 26.096,24.418 26.698,24.419L26.701,21.419ZM22.975,22.955C21.985,23.941 21.426,25.278 21.421,26.675L24.421,26.686C24.423,26.083 24.664,25.507 25.091,25.082L22.975,22.955ZM21.421,26.68L21.421,34.221L24.421,34.221L24.421,26.68L21.421,26.68ZM21.421,34.219C21.42,34.913 21.556,35.6 21.821,36.241L24.594,35.094C24.479,34.818 24.421,34.522 24.421,34.223L21.421,34.219ZM21.821,36.241C22.086,36.882 22.475,37.464 22.966,37.955L25.087,35.834C24.876,35.622 24.708,35.371 24.594,35.094L21.821,36.241ZM22.966,37.955C23.456,38.445 24.039,38.834 24.68,39.099L25.826,36.327C25.55,36.213 25.299,36.045 25.087,35.834L22.966,37.955ZM24.68,39.099C25.321,39.365 26.008,39.501 26.701,39.5L26.698,36.5C26.399,36.5 26.103,36.442 25.826,36.327L24.68,39.099ZM26.7,39.5L34.24,39.5L34.24,36.5L26.7,36.5L26.7,39.5ZM34.247,39.5C35.643,39.494 36.98,38.935 37.965,37.945L35.838,35.83C35.413,36.256 34.836,36.498 34.234,36.5L34.247,39.5ZM37.965,37.945C38.949,36.956 39.501,35.616 39.5,34.219L36.5,34.223C36.501,34.825 36.262,35.403 35.838,35.83L37.965,37.945ZM39.5,34.221L39.5,26.68L36.5,26.68L36.5,34.221L39.5,34.221ZM39.5,26.682C39.501,25.991 39.365,25.306 39.101,24.668L36.329,25.814C36.442,26.088 36.5,26.382 36.5,26.679L39.5,26.682ZM39.101,24.668C38.837,24.029 38.449,23.449 37.961,22.96L35.839,25.082C36.049,25.291 36.215,25.54 36.329,25.814L39.101,24.668ZM37.961,22.96C37.472,22.472 36.892,22.084 36.253,21.82L35.106,24.592C35.381,24.705 35.63,24.872 35.839,25.082L37.961,22.96ZM36.253,21.82C35.614,21.556 34.93,21.42 34.239,21.421L34.242,24.421C34.539,24.421 34.832,24.479 35.106,24.592L36.253,21.82ZM13.3,21.419L5.76,21.419L5.76,24.419L13.3,24.419L13.3,21.419ZM5.751,21.419C4.356,21.427 3.02,21.987 2.036,22.976L4.164,25.092C4.588,24.664 5.165,24.422 5.768,24.419L5.751,21.419ZM2.036,22.976C1.052,23.966 0.5,25.304 0.5,26.7L3.5,26.7C3.5,26.097 3.739,25.519 4.164,25.092L2.036,22.976ZM0.5,26.7L0.5,34.24L3.5,34.24L3.5,26.7L0.5,26.7ZM0.5,34.239C0.499,34.93 0.635,35.614 0.899,36.253L3.671,35.106C3.558,34.832 3.5,34.539 3.5,34.242L0.5,34.239ZM0.899,36.253C1.163,36.892 1.551,37.472 2.039,37.961L4.161,35.839C3.951,35.63 3.785,35.381 3.671,35.106L0.899,36.253ZM2.039,37.961C2.528,38.449 3.108,38.837 3.747,39.101L4.894,36.329C4.619,36.215 4.37,36.049 4.161,35.839L2.039,37.961ZM3.747,39.101C4.386,39.365 5.07,39.501 5.761,39.5L5.758,36.5C5.461,36.5 5.168,36.442 4.894,36.329L3.747,39.101ZM5.76,39.5L13.3,39.5L13.3,36.5L5.76,36.5L5.76,39.5ZM13.299,39.5C14.695,39.501 16.035,38.949 17.024,37.965L14.909,35.838C14.482,36.262 13.904,36.501 13.302,36.5L13.299,39.5ZM17.024,37.965C18.014,36.98 18.573,35.643 18.579,34.247L15.579,34.234C15.577,34.836 15.336,35.413 14.909,35.838L17.024,37.965ZM18.579,34.24L18.579,26.7L15.579,26.7L15.579,34.24L18.579,34.24ZM18.579,26.701C18.58,26.008 18.444,25.321 18.179,24.68L15.406,25.826C15.521,26.103 15.579,26.399 15.579,26.698L18.579,26.701ZM18.179,24.68C17.914,24.039 17.525,23.456 17.034,22.966L14.913,25.087C15.124,25.299 15.292,25.55 15.406,25.826L18.179,24.68ZM17.034,22.966C16.544,22.475 15.961,22.086 15.32,21.821L14.174,24.594C14.45,24.708 14.701,24.876 14.913,25.087L17.034,22.966ZM15.32,21.821C14.679,21.556 13.992,21.42 13.299,21.421L13.302,24.421C13.601,24.421 13.897,24.479 14.174,24.594L15.32,21.821Z" fill="#FFFFFF"/>
</svg>
