<svg width="40" height="40" viewBox="0 0 40 40" fill="none" xmlns="http://www.w3.org/2000/svg" xmlns:xlink="http://www.w3.org/1999/xlink">
<path d="M2,35L0.5,35L2,35ZM35.429,8L35.429,6.5L35.429,8ZM4.571,2L4.571,0.5L4.571,2ZM25.143,2L25.143,0.5L25.143,2ZM27.714,8L27.714,9.5L29.214,9.5L29.214,8L27.714,8ZM0.5,8L0.5,35L3.5,35L3.5,8L0.5,8ZM0.5,35C0.5,36.125 0.881,37.242 1.614,38.098L3.892,36.145C3.661,35.875 3.5,35.466 3.5,35L0.5,35ZM1.614,38.098C2.354,38.96 3.41,39.5 4.571,39.5L4.571,36.5C4.368,36.5 4.117,36.408 3.892,36.145L1.614,38.098ZM4.571,39.5L35.429,39.5L35.429,36.5L4.571,36.5L4.571,39.5ZM35.429,39.5C36.59,39.5 37.646,38.96 38.386,38.098L36.108,36.145C35.883,36.408 35.632,36.5 35.429,36.5L35.429,39.5ZM38.386,38.098C39.119,37.242 39.5,36.125 39.5,35L36.5,35C36.5,35.466 36.339,35.875 36.108,36.145L38.386,38.098ZM39.5,35L39.5,11L36.5,11L36.5,35L39.5,35ZM39.5,11C39.5,9.875 39.119,8.758 38.386,7.903L36.108,9.855C36.339,10.125 36.5,10.534 36.5,11L39.5,11ZM38.386,7.903C37.646,7.04 36.59,6.5 35.429,6.5L35.429,9.5C35.632,9.5 35.883,9.592 36.108,9.855L38.386,7.903ZM35.429,6.5L8.429,6.5L8.429,9.5L35.429,9.5L35.429,6.5ZM3.5,8L3.5,5L0.5,5L0.5,8L3.5,8ZM3.5,5C3.5,4.534 3.661,4.125 3.892,3.855L1.614,1.902C0.881,2.758 0.5,3.875 0.5,5L3.5,5ZM3.892,3.855C4.117,3.592 4.368,3.5 4.571,3.5L4.571,0.5C3.41,0.5 2.354,1.04 1.614,1.902L3.892,3.855ZM4.571,3.5L25.143,3.5L25.143,0.5L4.571,0.5L4.571,3.5ZM25.143,3.5C25.346,3.5 25.597,3.592 25.822,3.855L28.1,1.902C27.361,1.04 26.304,0.5 25.143,0.5L25.143,3.5ZM25.822,3.855C26.054,4.125 26.214,4.534 26.214,5L29.214,5C29.214,3.875 28.833,2.758 28.1,1.902L25.822,3.855ZM26.214,5L26.214,8L29.214,8L29.214,5L26.214,5ZM27.714,6.5L8.429,6.5L8.429,9.5L27.714,9.5L27.714,6.5ZM2,9.5L8.429,9.5L8.429,6.5L2,6.5L2,9.5ZM23.857,27.5L31.571,27.5L31.571,24.5L23.857,24.5L23.857,27.5Z" fill="#FFFFFF"/>
</svg>
