<svg width="36" height="36" viewBox="0 0 36 36" fill="none" xmlns="http://www.w3.org/2000/svg" xmlns:xlink="http://www.w3.org/1999/xlink">
<path d="M30.259,10.965C31.084,11.046 31.818,10.444 31.9,9.62C31.982,8.796 31.38,8.061 30.555,7.979L30.259,10.965ZM7.797,9.189L7.944,10.682L7.948,10.681L7.797,9.189ZM4.761,7.979C3.936,8.06 3.334,8.794 3.414,9.618C3.495,10.443 4.229,11.046 5.054,10.965L4.761,7.979ZM30.555,7.979C25.79,7.507 20.995,7.264 16.212,7.264L16.212,10.264C20.893,10.264 25.59,10.502 30.259,10.965L30.555,7.979ZM16.212,7.264C13.357,7.264 10.501,7.408 7.646,7.696L7.948,10.681C10.703,10.403 13.458,10.264 16.212,10.264L16.212,7.264ZM7.651,7.696L4.761,7.979L5.054,10.965L7.944,10.682L7.651,7.696Z" fill="#FF4141"/>
<path d="M11.22,7.793C11.083,8.61 11.634,9.384 12.451,9.521C13.268,9.658 14.041,9.107 14.179,8.29L11.22,7.793ZM13.011,6.186L11.532,5.937L11.532,5.937L13.011,6.186ZM22.304,6.2L20.824,6.441L20.825,6.45L22.304,6.2ZM21.137,8.292C21.275,9.109 22.049,9.659 22.866,9.52C23.683,9.382 24.233,8.608 24.095,7.791L21.137,8.292ZM14.179,8.29L14.49,6.434L11.532,5.937L11.22,7.793L14.179,8.29ZM14.49,6.435C14.55,6.076 14.589,5.859 14.642,5.682C14.69,5.523 14.724,5.491 14.719,5.497C14.663,5.56 14.762,5.334 15.802,5.334L15.802,2.334C14.447,2.334 13.264,2.611 12.468,3.513C11.76,4.316 11.625,5.384 11.532,5.937L14.49,6.435ZM15.802,5.334L19.513,5.334L19.513,2.334L15.802,2.334L15.802,5.334ZM19.513,5.334C20.011,5.334 20.298,5.391 20.452,5.442C20.525,5.467 20.562,5.488 20.577,5.498C20.59,5.506 20.593,5.511 20.594,5.511C20.595,5.512 20.631,5.552 20.678,5.71C20.73,5.884 20.768,6.097 20.824,6.441L23.785,5.958C23.696,5.413 23.562,4.355 22.86,3.545C22.07,2.635 20.891,2.334 19.513,2.334L19.513,5.334ZM20.825,6.45L21.137,8.292L24.095,7.791L23.783,5.95L20.825,6.45Z" fill="#FF4141"/>
<path d="M28.858,14.046C28.912,13.219 28.285,12.506 27.458,12.452C26.631,12.399 25.918,13.026 25.865,13.853L28.858,14.046ZM26.441,28.215L27.937,28.32L27.938,28.312L26.441,28.215ZM8.874,28.215L7.377,28.312L7.378,28.32L8.874,28.215ZM9.45,13.853C9.397,13.026 8.683,12.399 7.857,12.452C7.03,12.506 6.403,13.219 6.456,14.046L9.45,13.853ZM25.865,13.853L24.944,28.118L27.938,28.312L28.858,14.046L25.865,13.853ZM24.944,28.11C24.904,28.689 24.871,29.113 24.798,29.475C24.729,29.822 24.64,30.003 24.557,30.112C24.444,30.259 24.03,30.668 22.205,30.668L22.205,33.668C24.332,33.668 25.958,33.212 26.936,31.939C27.398,31.338 27.618,30.67 27.739,30.067C27.858,29.48 27.9,28.853 27.937,28.32L24.944,28.11ZM22.205,30.668L13.11,30.668L13.11,33.668L22.205,33.668L22.205,30.668ZM13.11,30.668C11.285,30.668 10.871,30.259 10.758,30.112C10.674,30.003 10.586,29.822 10.516,29.475C10.443,29.113 10.411,28.689 10.37,28.11L7.378,28.32C7.415,28.853 7.457,29.48 7.575,30.067C7.697,30.67 7.917,31.338 8.379,31.939C9.356,33.212 10.982,33.668 13.11,33.668L13.11,30.668ZM10.371,28.118L9.45,13.853L6.456,14.046L7.377,28.312L10.371,28.118Z" fill="#FF4141"/>
<line x1="15.291" y1="22.875" x2="20.009" y2="22.875" stroke="#FF4141" stroke-width="1.5" stroke-miterlimit="3.999327" stroke-linecap="round" stroke-linejoin="round"/>
<line x1="14.115" y1="17.209" x2="21.199" y2="17.209" stroke="#FF4141" stroke-width="1.5" stroke-miterlimit="3.999327" stroke-linecap="round" stroke-linejoin="round"/>
</svg>
