<svg width="40" height="30" viewBox="0 0 40 30" fill="none" xmlns="http://www.w3.org/2000/svg" xmlns:xlink="http://www.w3.org/1999/xlink">
<path d="M39.837,14.13C39.777,13.986 38.364,10.513 35.244,7.057C31.069,2.441 25.807,0 20.001,0C14.196,0 8.934,2.441 4.763,7.057C1.643,10.513 0.23,13.986 0.166,14.13C0.056,14.405 0,14.701 0,15.001C0,15.301 0.056,15.597 0.166,15.871C0.225,16.018 1.638,19.489 4.76,22.945C8.934,27.561 14.196,30 20.001,30C25.807,30 31.069,27.561 35.237,22.945C38.36,19.489 39.772,16.018 39.832,15.871C39.942,15.598 39.999,15.301 40,15.001C40.001,14.702 39.945,14.405 39.837,14.13ZM32.409,20.023C28.947,23.798 24.773,25.714 20.001,25.714C15.229,25.714 11.056,23.798 7.598,20.021C6.238,18.531 5.068,16.841 4.12,15C5.068,13.159 6.238,11.471 7.598,9.98C11.057,6.202 15.229,4.286 20.001,4.286C24.773,4.286 28.945,6.202 32.404,9.98C33.764,11.471 34.935,13.159 35.883,15C34.935,16.841 33.764,18.531 32.404,20.021L32.409,20.023ZM20.001,7.143C18.598,7.143 17.226,7.604 16.059,8.467C14.892,9.33 13.983,10.557 13.446,11.993C12.909,13.429 12.768,15.009 13.042,16.533C13.316,18.057 13.991,19.457 14.984,20.556C15.976,21.655 17.24,22.403 18.617,22.706C19.993,23.009 21.42,22.854 22.717,22.259C24.013,21.664 25.121,20.657 25.901,19.365C26.681,18.073 27.097,16.554 27.097,15C27.095,12.917 26.346,10.92 25.016,9.447C23.686,7.974 21.882,7.145 20.001,7.143ZM20.001,18.571C19.363,18.571 18.74,18.362 18.209,17.97C17.679,17.577 17.266,17.019 17.021,16.367C16.777,15.714 16.713,14.996 16.838,14.303C16.962,13.61 17.27,12.974 17.721,12.475C18.172,11.975 18.746,11.635 19.372,11.497C19.998,11.359 20.646,11.43 21.235,11.7C21.825,11.971 22.329,12.429 22.683,13.016C23.037,13.603 23.226,14.294 23.226,15C23.226,15.947 22.887,16.856 22.282,17.525C21.677,18.195 20.857,18.571 20.001,18.571Z" fill="#000000"/>
</svg>
