<svg width="36" height="36" viewBox="0 0 36 36" fill="none" xmlns="http://www.w3.org/2000/svg" xmlns:xlink="http://www.w3.org/1999/xlink">
<path d="M31.763,19.763C31.84,19.2 31.878,18.619 31.878,18C31.878,17.4 31.84,16.8 31.743,16.237L35.656,13.275C35.825,13.14 35.94,12.952 35.982,12.743C36.024,12.535 35.991,12.319 35.888,12.131L32.187,5.906C32.077,5.718 31.903,5.574 31.695,5.499C31.487,5.423 31.259,5.422 31.049,5.494L26.443,7.294C25.479,6.581 24.457,5.981 23.32,5.531L22.626,0.769C22.592,0.554 22.48,0.359 22.31,0.217C22.14,0.076 21.924,-0.001 21.701,0L14.299,0C13.837,0 13.47,0.319 13.393,0.769L12.699,5.531C11.562,5.981 10.521,6.6 9.577,7.294L4.97,5.494C4.546,5.344 4.064,5.494 3.833,5.906L0.151,12.131C-0.08,12.525 -0.003,13.013 0.382,13.275L4.295,16.237C4.199,16.8 4.122,17.419 4.122,18C4.122,18.581 4.16,19.2 4.257,19.763L0.344,22.725C0.175,22.86 0.06,23.048 0.018,23.257C-0.024,23.465 0.009,23.682 0.112,23.869L3.813,30.094C4.045,30.506 4.527,30.638 4.951,30.506L9.557,28.706C10.521,29.419 11.543,30.019 12.68,30.469L13.374,35.231C13.47,35.681 13.837,36 14.299,36L21.701,36C22.163,36 22.549,35.681 22.607,35.231L23.301,30.469C24.438,30.019 25.479,29.419 26.423,28.706L31.03,30.506C31.454,30.656 31.936,30.506 32.167,30.094L35.868,23.869C36.1,23.456 36.003,22.988 35.637,22.725L31.763,19.763ZM18,24.75C14.183,24.75 11.061,21.713 11.061,18C11.061,14.287 14.183,11.25 18,11.25C21.817,11.25 24.939,14.287 24.939,18C24.939,21.713 21.817,24.75 18,24.75Z" fill="#2D2626"/>
</svg>
