<svg width="40" height="30" viewBox="0 0 40 30" fill="none" xmlns="http://www.w3.org/2000/svg" xmlns:xlink="http://www.w3.org/1999/xlink">
<path d="M19.691,9.474L25.455,14.463L25.455,14.211C25.455,12.954 24.88,11.749 23.857,10.861C22.834,9.973 21.447,9.474 20,9.474L19.691,9.474ZM11.873,10.737L14.691,13.184C14.6,13.516 14.545,13.847 14.545,14.211C14.545,15.467 15.12,16.672 16.143,17.56C17.166,18.448 18.553,18.947 20,18.947C20.4,18.947 20.8,18.9 21.182,18.821L24,21.268C22.782,21.789 21.436,22.105 20,22.105C17.589,22.105 15.277,21.273 13.572,19.793C11.867,18.312 10.909,16.304 10.909,14.211C10.909,12.963 11.273,11.795 11.873,10.737ZM1.818,2.005L5.964,5.605L6.782,6.316C3.782,8.368 1.418,11.053 0,14.211C3.145,21.142 10.909,26.053 20,26.053C22.818,26.053 25.509,25.579 27.964,24.726L28.745,25.389L34.055,30L36.364,27.995L4.127,0M20,6.316C22.411,6.316 24.723,7.148 26.428,8.628C28.133,10.109 29.091,12.117 29.091,14.211C29.091,15.221 28.855,16.2 28.436,17.084L33.764,21.711C36.491,19.737 38.673,17.147 40,14.211C36.855,7.279 29.091,2.368 20,2.368C17.455,2.368 15.018,2.763 12.727,3.474L16.673,6.868C17.709,6.521 18.818,6.316 20,6.316Z" fill="#000000"/>
</svg>
