<svg width="38" height="40" viewBox="0 0 38 40" fill="none" xmlns="http://www.w3.org/2000/svg" xmlns:xlink="http://www.w3.org/1999/xlink">
<path d="M24.57,7.3C24.421,6.769 23.869,6.458 23.337,6.607C22.806,6.757 22.495,7.308 22.645,7.84L24.57,7.3ZM31.156,16.354C31.688,16.505 32.241,16.196 32.391,15.665C32.542,15.133 32.233,14.58 31.702,14.43L31.156,16.354ZM22.645,7.84C23.8,11.962 27.024,15.183 31.156,16.354L31.702,14.43C28.235,13.447 25.537,10.747 24.57,7.3L22.645,7.84Z" fill="#292D32"/>
<path d="M25.396,5.782L26.103,6.489L26.103,6.489L25.396,5.782ZM12.919,18.259L12.212,17.552L12.212,17.552L12.919,18.259ZM11.874,20.349L12.864,20.49L12.865,20.487L11.874,20.349ZM11.193,25.115L12.183,25.26L12.183,25.256L11.193,25.115ZM13.885,27.807L14.021,28.797L14.027,28.796L13.885,27.807ZM18.651,27.126L18.51,26.136L18.51,26.136L18.651,27.126ZM20.741,26.081L21.436,26.799L21.448,26.788L20.741,26.081ZM33.218,13.604L32.511,12.897L32.511,12.897L33.218,13.604ZM24.689,5.075L12.212,17.552L13.626,18.966L26.103,6.489L24.689,5.075ZM12.212,17.552C11.876,17.888 11.582,18.338 11.361,18.778C11.14,19.217 10.951,19.728 10.884,20.211L12.865,20.487C12.892,20.289 12.989,19.993 13.148,19.676C13.307,19.36 13.487,19.105 13.626,18.966L12.212,17.552ZM10.884,20.208L10.204,24.973L12.183,25.256L12.864,20.49L10.884,20.208ZM10.204,24.97C10.038,26.102 10.348,27.165 11.091,27.906C11.833,28.644 12.896,28.952 14.021,28.797L13.749,26.816C13.149,26.898 12.739,26.724 12.503,26.488C12.268,26.255 12.096,25.854 12.183,25.26L10.204,24.97ZM14.027,28.796L18.792,28.116L18.51,26.136L13.744,26.817L14.027,28.796ZM18.792,28.116C19.268,28.048 19.774,27.858 20.21,27.639C20.649,27.419 21.097,27.127 21.436,26.799L20.046,25.362C19.894,25.509 19.63,25.693 19.312,25.852C18.992,26.013 18.699,26.109 18.51,26.136L18.792,28.116ZM21.448,26.788L33.925,14.311L32.511,12.897L20.034,25.374L21.448,26.788ZM33.925,14.311C35.059,13.177 36.047,11.807 36.208,10.171C36.374,8.483 35.637,6.787 33.925,5.075L32.511,6.489C33.965,7.944 34.305,9.083 34.217,9.975C34.125,10.921 33.53,11.877 32.511,12.897L33.925,14.311ZM33.925,5.075C32.213,3.363 30.517,2.626 28.829,2.792C27.193,2.953 25.823,3.941 24.689,5.075L26.103,6.489C27.123,5.47 28.079,4.875 29.025,4.783C29.917,4.695 31.056,5.035 32.511,6.489L33.925,5.075Z" fill="#292D32"/>
<path d="M17.416,5.166C17.968,5.166 18.416,4.718 18.416,4.166C18.416,3.614 17.968,3.166 17.416,3.166L17.416,5.166ZM35.833,21.583C35.833,21.03 35.385,20.583 34.833,20.583C34.28,20.583 33.833,21.03 33.833,21.583L35.833,21.583ZM17.416,3.166L14.249,3.166L14.249,5.166L17.416,5.166L17.416,3.166ZM14.249,3.166C10.192,3.166 7.092,3.971 5.032,6.032C2.971,8.092 2.166,11.192 2.166,15.249L4.166,15.249C4.166,11.39 4.944,8.948 6.446,7.446C7.948,5.944 10.39,5.166 14.249,5.166L14.249,3.166ZM2.166,15.249L2.166,24.749L4.166,24.749L4.166,15.249L2.166,15.249ZM2.166,24.749C2.166,28.806 2.971,31.906 5.032,33.967C7.092,36.027 10.192,36.833 14.249,36.833L14.249,34.833C10.39,34.833 7.948,34.055 6.446,32.553C4.944,31.051 4.166,28.609 4.166,24.749L2.166,24.749ZM14.249,36.833L23.749,36.833L23.749,34.833L14.249,34.833L14.249,36.833ZM23.749,36.833C27.806,36.833 30.906,36.027 32.967,33.967C35.027,31.906 35.833,28.806 35.833,24.749L33.833,24.749C33.833,28.609 33.055,31.051 31.553,32.553C30.051,34.055 27.609,34.833 23.749,34.833L23.749,36.833ZM35.833,24.749L35.833,21.583L33.833,21.583L33.833,24.749L35.833,24.749Z" fill="#292D32"/>
</svg>
