<svg width="34" height="34" viewBox="0 0 34 34" fill="none" xmlns="http://www.w3.org/2000/svg" xmlns:xlink="http://www.w3.org/1999/xlink">
<path d="M17,0C13.638,0 10.351,0.997 7.555,2.865C4.76,4.733 2.581,7.388 1.294,10.494C0.007,13.601 -0.329,17.019 0.327,20.317C0.983,23.614 2.602,26.643 4.979,29.021C7.357,31.398 10.386,33.017 13.683,33.673C16.981,34.329 20.399,33.993 23.506,32.706C26.612,31.419 29.267,29.24 31.135,26.445C33.003,23.649 34,20.362 34,17C34,12.491 32.209,8.167 29.021,4.979C25.833,1.791 21.509,0 17,0ZM17,31.875C14.058,31.875 11.182,31.003 8.736,29.368C6.29,27.734 4.383,25.41 3.257,22.692C2.131,19.974 1.837,16.984 2.411,14.098C2.985,11.213 4.401,8.562 6.482,6.482C8.562,4.401 11.213,2.985 14.098,2.411C16.984,1.837 19.974,2.131 22.692,3.257C25.41,4.383 27.734,6.29 29.368,8.736C31.003,11.182 31.875,14.058 31.875,17C31.875,20.945 30.308,24.729 27.518,27.518C24.729,30.308 20.945,31.875 17,31.875Z" fill="#1C1919"/>
<path d="M18.06,8.001C16.973,7.983 15.895,8.21 14.903,8.668C13.911,9.125 13.03,9.802 12.321,10.648C12.223,10.742 12.143,10.855 12.088,10.981C12.033,11.106 12.003,11.242 12,11.38C12,11.507 12.025,11.633 12.073,11.75C12.121,11.867 12.192,11.973 12.281,12.061C12.37,12.149 12.475,12.219 12.591,12.264C12.706,12.31 12.829,12.332 12.953,12.327C13.218,12.321 13.472,12.214 13.666,12.029C14.202,11.384 14.868,10.865 15.618,10.51C16.368,10.154 17.184,9.969 18.01,9.969C20.378,9.969 21.853,11.534 21.853,13.481L21.853,13.533C21.853,15.809 20.087,17.076 17.298,17.292C17.185,17.297 17.074,17.326 16.973,17.377C16.871,17.429 16.782,17.502 16.71,17.591C16.638,17.681 16.585,17.785 16.555,17.896C16.525,18.008 16.518,18.125 16.535,18.24C16.535,18.24 16.535,20.63 16.535,21.073C16.56,21.328 16.677,21.564 16.862,21.736C17.048,21.907 17.289,22.001 17.538,22L17.649,22C17.897,21.974 18.127,21.855 18.294,21.664C18.461,21.474 18.553,21.226 18.552,20.97L18.552,18.848C21.562,18.415 24,16.788 24,13.409L24,13.358C23.97,10.267 21.622,8.001 18.06,8.001Z" fill="#1C1919"/>
<path d="M17,28C17.552,28 18,27.105 18,26C18,24.895 17.552,24 17,24C16.448,24 16,24.895 16,26C16,27.105 16.448,28 17,28Z" fill="#1C1919"/>
</svg>
