<svg width="42" height="42" viewBox="0 0 42 42" fill="none" xmlns="http://www.w3.org/2000/svg" xmlns:xlink="http://www.w3.org/1999/xlink">
<path d="M12.651,11.06L12.177,9.637L12.175,9.638L12.651,11.06ZM27.509,6.108L27.034,4.685L27.034,4.685L27.509,6.108ZM35.594,14.193L37.017,14.667L37.018,14.664L35.594,14.193ZM30.641,29.05L29.218,28.576L29.218,28.577L30.641,29.05ZM18.531,29.05L19.954,28.577L19.954,28.576L18.531,29.05ZM17.061,24.64L18.484,24.166C18.335,23.718 17.983,23.367 17.535,23.217L17.061,24.64ZM12.651,23.17L13.125,21.747L13.125,21.747L12.651,23.17ZM13.125,12.483L27.983,7.531L27.034,4.685L12.177,9.637L13.125,12.483ZM27.983,7.531C31.085,6.497 32.942,7 33.817,7.876C34.693,8.754 35.196,10.618 34.17,13.722L37.018,14.664C38.196,11.1 37.99,7.81 35.94,5.757C33.888,3.701 30.599,3.496 27.034,4.685L27.983,7.531ZM34.171,13.718L29.218,28.576L32.064,29.525L37.017,14.667L34.171,13.718ZM29.218,28.577C28.419,30.978 27.527,32.662 26.657,33.716C25.783,34.775 25.069,35.045 24.586,35.045C24.103,35.045 23.389,34.775 22.515,33.716C21.645,32.662 20.754,30.978 19.954,28.577L17.108,29.524C17.971,32.118 19.009,34.182 20.202,35.626C21.39,37.066 22.873,38.045 24.586,38.045C26.3,38.045 27.782,37.066 28.97,35.626C30.163,34.182 31.201,32.118 32.064,29.524L29.218,28.577ZM19.954,28.576L18.484,24.166L15.638,25.115L17.108,29.525L19.954,28.576ZM17.535,23.217L13.125,21.747L12.177,24.593L16.587,26.063L17.535,23.217ZM13.125,21.747C10.722,20.948 9.038,20.057 7.985,19.188C6.926,18.315 6.657,17.603 6.657,17.122C6.657,16.641 6.926,15.927 7.986,15.051C9.04,14.18 10.725,13.286 13.127,12.483L12.175,9.638C9.581,10.505 7.519,11.546 6.075,12.739C4.636,13.928 3.657,15.409 3.657,17.122C3.657,18.835 4.637,20.316 6.076,21.503C7.52,22.694 9.583,23.73 12.178,24.594L13.125,21.747Z" fill="#FFFFFF"/>
<path d="M16.331,22.829C15.746,23.415 15.748,24.365 16.334,24.95C16.921,25.535 17.871,25.534 18.456,24.947L16.331,22.829ZM24.721,18.665C25.306,18.078 25.304,17.128 24.718,16.543C24.131,15.958 23.181,15.96 22.596,16.546L24.721,18.665ZM18.456,24.947L24.721,18.665L22.596,16.546L16.331,22.829L18.456,24.947Z" fill="#FFFFFF"/>
</svg>
