<svg width="36" height="36" viewBox="0 0 36 36" fill="none" xmlns="http://www.w3.org/2000/svg" xmlns:xlink="http://www.w3.org/1999/xlink">
<path d="M30.26,10.965C31.085,11.046 31.819,10.444 31.901,9.62C31.983,8.796 31.381,8.061 30.556,7.979L30.26,10.965ZM7.798,9.189L7.945,10.682L7.949,10.681L7.798,9.189ZM4.762,7.979C3.937,8.06 3.335,8.794 3.415,9.618C3.496,10.443 4.23,11.046 5.055,10.965L4.762,7.979ZM30.556,7.979C25.791,7.507 20.996,7.264 16.213,7.264L16.213,10.264C20.894,10.264 25.591,10.502 30.26,10.965L30.556,7.979ZM16.213,7.264C13.358,7.264 10.502,7.408 7.647,7.696L7.949,10.681C10.704,10.403 13.459,10.264 16.213,10.264L16.213,7.264ZM7.652,7.696L4.762,7.979L5.055,10.965L7.945,10.682L7.652,7.696Z" fill="#FF4141"/>
<path d="M11.22,7.793C11.083,8.61 11.634,9.384 12.451,9.521C13.268,9.658 14.042,9.107 14.179,8.29L11.22,7.793ZM13.011,6.186L11.532,5.937L11.532,5.937L13.011,6.186ZM22.305,6.2L20.824,6.441L20.826,6.45L22.305,6.2ZM21.137,8.292C21.276,9.109 22.05,9.659 22.867,9.52C23.683,9.382 24.234,8.608 24.095,7.791L21.137,8.292ZM14.179,8.29L14.491,6.434L11.532,5.937L11.22,7.793L14.179,8.29ZM14.491,6.435C14.551,6.076 14.59,5.859 14.643,5.682C14.691,5.523 14.725,5.491 14.719,5.497C14.663,5.56 14.763,5.334 15.802,5.334L15.802,2.334C14.447,2.334 13.265,2.611 12.469,3.513C11.761,4.316 11.625,5.384 11.532,5.937L14.491,6.435ZM15.802,5.334L19.514,5.334L19.514,2.334L15.802,2.334L15.802,5.334ZM19.514,5.334C20.012,5.334 20.299,5.391 20.453,5.442C20.525,5.467 20.562,5.488 20.577,5.498C20.591,5.506 20.594,5.511 20.595,5.511C20.596,5.512 20.631,5.552 20.679,5.71C20.73,5.884 20.768,6.097 20.824,6.441L23.785,5.958C23.696,5.413 23.563,4.355 22.86,3.545C22.071,2.635 20.891,2.334 19.514,2.334L19.514,5.334ZM20.826,6.45L21.137,8.292L24.095,7.791L23.784,5.95L20.826,6.45Z" fill="#FF4141"/>
<path d="M28.859,14.046C28.913,13.219 28.286,12.506 27.459,12.452C26.632,12.399 25.919,13.026 25.866,13.853L28.859,14.046ZM26.442,28.215L27.938,28.32L27.938,28.312L26.442,28.215ZM8.875,28.215L7.378,28.312L7.379,28.32L8.875,28.215ZM9.451,13.853C9.398,13.026 8.684,12.399 7.857,12.452C7.031,12.506 6.404,13.219 6.457,14.046L9.451,13.853ZM25.866,13.853L24.945,28.118L27.938,28.312L28.859,14.046L25.866,13.853ZM24.945,28.11C24.905,28.689 24.872,29.113 24.799,29.475C24.73,29.822 24.641,30.003 24.558,30.112C24.445,30.259 24.031,30.668 22.206,30.668L22.206,33.668C24.333,33.668 25.959,33.212 26.937,31.939C27.399,31.338 27.619,30.67 27.74,30.067C27.859,29.48 27.901,28.853 27.938,28.32L24.945,28.11ZM22.206,30.668L13.111,30.668L13.111,33.668L22.206,33.668L22.206,30.668ZM13.111,30.668C11.286,30.668 10.872,30.259 10.759,30.112C10.675,30.003 10.587,29.822 10.517,29.475C10.444,29.113 10.412,28.689 10.371,28.11L7.379,28.32C7.416,28.853 7.458,29.48 7.576,30.067C7.698,30.67 7.918,31.338 8.38,31.939C9.357,33.212 10.983,33.668 13.111,33.668L13.111,30.668ZM10.372,28.118L9.451,13.853L6.457,14.046L7.378,28.312L10.372,28.118Z" fill="#FF4141"/>
<line x1="15.292" y1="22.875" x2="20.01" y2="22.875" stroke="#FF4141" stroke-width="1.5" stroke-miterlimit="3.999327" stroke-linecap="round" stroke-linejoin="round"/>
<line x1="14.117" y1="17.209" x2="21.2" y2="17.209" stroke="#FF4141" stroke-width="1.5" stroke-miterlimit="3.999327" stroke-linecap="round" stroke-linejoin="round"/>
</svg>
