<svg width="40" height="40" viewBox="0 0 40 40" fill="none" xmlns="http://www.w3.org/2000/svg" xmlns:xlink="http://www.w3.org/1999/xlink">
<path d="M0,6.667L0,36.667C0,37.551 0.301,38.399 0.837,39.024C1.373,39.649 2.099,40 2.857,40L37.143,40C37.901,40 38.627,39.649 39.163,39.024C39.699,38.399 40,37.551 40,36.667L40,10C40,9.116 39.699,8.268 39.163,7.643C38.627,7.018 37.901,6.667 37.143,6.667L7.143,6.667M0,6.667L0,3.333C0,2.449 0.301,1.601 0.837,0.976C1.373,0.351 2.099,0 2.857,0L25.714,0C26.472,0 27.199,0.351 27.735,0.976C28.27,1.601 28.571,2.449 28.571,3.333L28.571,6.667L7.143,6.667M0,6.667L7.143,6.667ZM24.286,26.667L32.857,26.667Z" fill="#2BAEBA" stroke="#2D2626" stroke-width="0.5" stroke-miterlimit="3.999327"/>
</svg>
