<svg width="36" height="36" viewBox="0 0 36 36" fill="none" xmlns="http://www.w3.org/2000/svg" xmlns:xlink="http://www.w3.org/1999/xlink">
<path d="M7,21L21,21L21,19L7,19L7,21ZM7,15L29,15L29,13L7,13L7,15ZM7,9L29,9L29,7L7,7L7,9ZM0,34.154L0,3.232C0,2.311 0.309,1.542 0.926,0.926C1.543,0.31 2.311,0.001 3.23,0L32.77,0C33.69,0 34.458,0.309 35.074,0.926C35.69,1.543 35.999,2.312 36,3.232L36,24.77C36,25.69 35.691,26.459 35.074,27.076C34.457,27.693 33.689,28.001 32.77,28L6.154,28L0,34.154ZM5.3,26L32.77,26C33.077,26 33.359,25.872 33.616,25.616C33.873,25.36 34.001,25.078 34,24.77L34,3.23C34,2.923 33.872,2.641 33.616,2.384C33.36,2.127 33.078,1.999 32.77,2L3.23,2C2.923,2 2.641,2.128 2.384,2.384C2.127,2.64 1.999,2.922 2,3.23L2,29.29L5.3,26Z" fill="#FFFFFF"/>
</svg>
