<!DOCTYPE svg PUBLIC "-//W3C//DTD SVG 1.1//EN" "http://www.w3.org/Graphics/SVG/1.1/DTD/svg11.dtd">
<!-- Uploaded to: SVG Repo, www.svgrepo.com, Transformed by: SVG Repo Mixer Tools -->
<svg version="1.1" id="_x32_" xmlns="http://www.w3.org/2000/svg" xmlns:xlink="http://www.w3.org/1999/xlink" width="800px" height="800px" viewBox="0 0 512.00 512.00" xml:space="preserve" fill="#000000" transform="matrix(1, 0, 0, 1, 0, 0)rotate(0)" stroke="#000000" stroke-width="0.00512">
<g id="SVGRepo_bgCarrier" stroke-width="0" transform="translate(0,0), scale(1)"/>
<g id="SVGRepo_tracerCarrier" stroke-linecap="round" stroke-linejoin="round" stroke="#CCCCCC" stroke-width="5.12"/>
<g id="SVGRepo_iconCarrier"> <style type="text/css">  .st0{fill:#37a07d;}  </style> <g> <path class="st0" d="M278.172,297.375l-51.203,51.188c0.016,0.594,0.031,1.188,0.031,1.781c0,8.406-1.594,16.781-4.766,24.625 c-3.203,7.813-7.922,15.156-14.375,21.563l-33.672,33.719c-6.453,6.438-13.766,11.156-21.609,14.344 c-7.859,3.188-16.219,4.781-24.609,4.781c-8.375,0-16.75-1.594-24.594-4.75c-7.844-3.219-15.156-7.938-21.625-14.375 c-6.438-6.438-11.156-13.75-14.344-21.594s-4.781-16.219-4.781-24.625c0-8.375,1.594-16.75,4.781-24.594 s7.906-15.156,14.344-21.625l33.719-33.688c6.438-6.406,13.734-11.156,21.594-14.344c7.828-3.188,16.219-4.781,24.594-4.781 c0.594,0,1.188,0.031,1.766,0.063l51.203-51.234c-1.594-0.734-3.203-1.422-4.844-2.078c-15.422-6.25-31.781-9.375-48.125-9.375 s-32.719,3.125-48.125,9.375c-15.422,6.25-29.906,15.688-42.359,28.094l-33.688,33.719c-12.438,12.406-21.859,26.906-28.109,42.344 S0,367.688,0,384.031s3.125,32.719,9.375,48.156c6.25,15.406,15.672,29.906,28.109,42.313 c12.422,12.469,26.922,21.906,42.344,28.125c15.438,6.281,31.797,9.375,48.141,9.375c16.359,0,32.719-3.094,48.141-9.375 c15.422-6.219,29.922-15.656,42.344-28.125l33.703-33.656c12.422-12.469,21.844-26.938,28.109-42.344 c6.266-15.469,9.359-31.813,9.375-48.156c-0.016-16.313-3.109-32.688-9.375-48.156 C279.594,300.594,278.891,298.969,278.172,297.375z"/> <path class="st0" d="M502.625,79.844c-6.25-15.438-15.672-29.938-28.109-42.359c-12.422-12.422-26.922-21.859-42.359-28.109 C416.734,3.125,400.375,0,384.031,0s-32.719,3.125-48.141,9.375s-29.922,15.688-42.344,28.109l-33.703,33.703 C247.422,83.594,238,98.094,231.734,113.531c-6.266,15.406-9.359,31.781-9.359,48.141c0,16.344,3.094,32.703,9.359,48.141 c0.672,1.625,1.359,3.219,2.094,4.828l51.203-51.203c-0.016-0.578-0.031-1.156-0.031-1.766c0-8.391,1.594-16.781,4.781-24.609 c3.188-7.844,7.906-15.156,14.359-21.625l33.672-33.688c6.453-6.406,13.766-11.141,21.625-14.344 c7.813-3.156,16.203-4.781,24.594-4.781c8.406,0,16.75,1.625,24.625,4.781c7.813,3.203,15.141,7.938,21.594,14.344 c6.438,6.469,11.156,13.781,14.344,21.625c3.156,7.844,4.781,16.219,4.781,24.594c0,8.391-1.625,16.75-4.781,24.625 c-3.188,7.844-7.906,15.156-14.344,21.594l-33.688,33.688c-6.438,6.438-13.766,11.156-21.625,14.344 c-7.828,3.188-16.203,4.781-24.594,4.781c-0.594,0-1.188-0.016-1.766-0.031l-51.203,51.219c1.594,0.719,3.203,1.422,4.813,2.063 c15.453,6.281,31.813,9.406,48.156,9.406s32.719-3.125,48.125-9.406c15.422-6.25,29.906-15.672,42.359-28.094l33.688-33.703 c12.438-12.422,21.859-26.922,28.109-42.359c6.25-15.406,9.375-31.781,9.375-48.125S508.875,95.25,502.625,79.844z"/> <path class="st0" d="M160.219,351.781c12.234,12.25,32.063,12.25,44.281,0L351.781,204.5c12.219-12.219,12.25-32.031,0-44.281 c-12.234-12.219-32.063-12.219-44.281,0L160.219,307.531C148,319.75,148,339.563,160.219,351.781z"/> </g> </g>
</svg>