<!DOCTYPE svg PUBLIC "-//W3C//DTD SVG 1.1//EN" "http://www.w3.org/Graphics/SVG/1.1/DTD/svg11.dtd">
<!-- Uploaded to: SVG Repo, www.svgrepo.com, Transformed by: SVG Repo Mixer Tools -->
<svg height="800px" width="800px" version="1.1" id="Layer_1" xmlns="http://www.w3.org/2000/svg" xmlns:xlink="http://www.w3.org/1999/xlink" viewBox="0 0 511.992 511.992" xml:space="preserve" fill="#000000">
<g id="SVGRepo_bgCarrier" stroke-width="0"/>
<g id="SVGRepo_tracerCarrier" stroke-linecap="round" stroke-linejoin="round"/>
<g id="SVGRepo_iconCarrier"> <path style="fill:#fbc123;" d="M383.974,490.658c-5.406,0-10.046-4.109-10.593-9.609l-31.046-310.381H169.652l-31.039,310.381 c-0.586,5.875-5.828,10.141-11.679,9.562c-5.859-0.594-10.141-5.812-9.555-11.672l32-319.991c0.547-5.453,5.141-9.609,10.617-9.609 h191.995c5.484,0,10.062,4.156,10.624,9.609l31.998,319.991c0.578,5.859-3.702,11.078-9.562,11.672 C384.692,490.642,384.333,490.658,383.974,490.658z"/> <path style="fill:#a1a93d;" d="M343.835,10.265C343.616,4.531,338.913,0,333.179,0H181.331c-5.71,0-10.414,4.5-10.656,10.218 L149.34,500.861c-0.258,5.891,4.305,10.858,10.195,11.124c0.156,0,0.312,0,0.469,0c5.68,0,10.398-4.469,10.648-10.202l3.266-75.124 H338.46l2.875,75.077c0.219,5.89,5.156,10.452,11.062,10.249c5.891-0.219,10.468-5.187,10.249-11.062L343.835,10.265z M181.339,255.993h150.574l2.453,63.999H178.558L181.339,255.993z M322.913,21.343l8.172,213.322H182.269l9.273-213.322H322.913z M174.848,405.332l2.781-63.998h157.55l2.469,63.998H174.848z"/> <path style="fill:#5D9CEC;" d="M343.835,10.265C343.616,4.531,338.913,0,333.179,0H181.331c-5.71,0-10.414,4.5-10.656,10.218 l-2.344,53.78h177.565L343.835,10.265z"/> <g> <path style="fill:#4A89DC;" d="M298.664,21.343c5.89,0,10.671-4.781,10.671-10.671V0h-21.343v10.671 C287.992,16.561,292.773,21.343,298.664,21.343z"/> <path style="fill:#4A89DC;" d="M255.994,21.343c5.89,0,10.671-4.781,10.671-10.671V0H245.33v10.671 C245.329,16.561,250.103,21.343,255.994,21.343z"/> <path style="fill:#4A89DC;" d="M213.33,21.343c5.89,0,10.664-4.781,10.664-10.671V0h-21.335v10.671 C202.659,16.561,207.44,21.343,213.33,21.343z"/> </g> </g>
</svg>