<!DOCTYPE svg PUBLIC "-//W3C//DTD SVG 1.1//EN" "http://www.w3.org/Graphics/SVG/1.1/DTD/svg11.dtd">
<!-- Uploaded to: SVG Repo, www.svgrepo.com, Transformed by: SVG Repo Mixer Tools -->
<svg fill="#35af1d" height="800px" width="800px" version="1.1" id="Layer_1" xmlns="http://www.w3.org/2000/svg" xmlns:xlink="http://www.w3.org/1999/xlink" viewBox="0 0 491.523 491.523" xml:space="preserve" stroke="#35af1d">
<g id="SVGRepo_bgCarrier" stroke-width="0"/>
<g id="SVGRepo_tracerCarrier" stroke-linecap="round" stroke-linejoin="round"/>
<g id="SVGRepo_iconCarrier"> <g> <g> <g> <path d="M245.762,286.723c-22.589,0-40.96,18.371-40.96,40.96c0,22.589,18.371,40.96,40.96,40.96 c22.589,0,40.96-18.371,40.96-40.96C286.722,305.094,268.351,286.723,245.762,286.723z"/> <path d="M491.419,183.852c-0.021-1.004-0.307-1.925-0.471-2.908c-0.205-1.167-0.389-2.294-0.799-3.4c0-0.041,0-0.102-0.021-0.143 c-0.123-0.348-0.123-0.778-0.266-1.126c-0.328-0.737-0.922-1.331-1.331-2.048c-0.614-1.044-1.188-2.048-1.966-2.97 c-0.328-0.389-0.553-0.86-0.901-1.229c-0.533-0.532-1.249-0.84-1.823-1.331c-0.963-0.778-1.884-1.516-2.97-2.109 c-0.41-0.225-0.696-0.594-1.106-0.799L131.606,1.949c-6.369-2.97-13.763-2.54-19.702,1.249 c-5.919,3.748-9.503,10.281-9.503,17.285v69.222l-36.946-7.373c-6.001-1.249-12.247,0.348-16.998,4.239 c-4.731,3.891-7.496,9.687-7.496,15.831v61.44h-20.48c-11.325,0-20.48,9.175-20.48,20.48v286.72 c0,11.305,9.155,20.48,20.48,20.48h450.56c11.325,0,20.48-9.175,20.48-20.48v-286.72 C491.522,184.159,491.419,184.016,491.419,183.852z M143.362,52.76l166.83,78.5l-166.83-33.362V52.76z M81.922,127.389 l36.925,7.373l0.021,0.02l145.347,29.061H81.922V127.389z M102.402,430.083c-11.305,0-20.48-9.175-20.48-20.48 c0-11.305,9.175-20.48,20.48-20.48c11.305,0,20.48,9.175,20.48,20.48C122.882,420.908,113.707,430.083,102.402,430.083z M102.402,266.243c-11.305,0-20.48-9.175-20.48-20.48c0-11.305,9.175-20.48,20.48-20.48c11.305,0,20.48,9.175,20.48,20.48 C122.882,257.068,113.707,266.243,102.402,266.243z M245.762,409.603c-45.179,0-81.92-36.741-81.92-81.92 s36.741-81.92,81.92-81.92c45.179,0,81.92,36.741,81.92,81.92S290.94,409.603,245.762,409.603z M389.122,430.083 c-11.305,0-20.48-9.175-20.48-20.48c0-11.305,9.175-20.48,20.48-20.48c11.305,0,20.48,9.175,20.48,20.48 C409.602,420.908,400.427,430.083,389.122,430.083z M389.122,266.243c-11.305,0-20.48-9.175-20.48-20.48 c0-11.305,9.175-20.48,20.48-20.48c11.305,0,20.48,9.175,20.48,20.48C409.602,257.068,400.427,266.243,389.122,266.243z"/> </g> </g> </g> </g>
</svg>