<!DOCTYPE svg PUBLIC "-//W3C//DTD SVG 1.1//EN" "http://www.w3.org/Graphics/SVG/1.1/DTD/svg11.dtd">
<!-- Uploaded to: SVG Repo, www.svgrepo.com, Transformed by: SVG Repo Mixer Tools -->
<svg height="800px" width="800px" version="1.1" id="_x32_" xmlns="http://www.w3.org/2000/svg" xmlns:xlink="http://www.w3.org/1999/xlink" viewBox="0 0 512 512" xml:space="preserve" fill="#000000">
<g id="SVGRepo_bgCarrier" stroke-width="0"/>
<g id="SVGRepo_tracerCarrier" stroke-linecap="round" stroke-linejoin="round"/>
<g id="SVGRepo_iconCarrier"> <style type="text/css"> .st0{fill:#f4c33e;} </style> <g> <path class="st0" d="M218.412,444.786c-5.85-3.957-12.972-6.291-20.546-6.282c-5.043,0-9.908,1.026-14.314,2.895 c-6.605,2.793-12.192,7.436-16.156,13.303c-3.965,5.85-6.283,12.973-6.274,20.546c-0.009,5.043,1.019,9.908,2.886,14.306 c2.802,6.614,7.437,12.2,13.295,16.156c5.858,3.974,12.99,6.292,20.563,6.292c5.043,0,9.898-1.028,14.297-2.895 c6.613-2.793,12.208-7.446,16.165-13.304c3.956-5.85,6.282-12.981,6.282-20.554c0-5.042-1.036-9.898-2.895-14.305 C228.921,454.328,224.27,448.742,218.412,444.786z M211.518,481.012c-1.12,2.649-3.014,4.933-5.383,6.529 c-2.377,1.596-5.161,2.521-8.268,2.53c-2.08-0.009-4.008-0.416-5.765-1.172c-2.64-1.103-4.933-3.005-6.529-5.365 c-1.596-2.386-2.513-5.179-2.53-8.287c0.009-2.072,0.424-3.99,1.172-5.764c1.103-2.64,3.006-4.924,5.374-6.528 c2.378-1.596,5.171-2.514,8.278-2.522c2.072,0,3.99,0.417,5.756,1.163c2.649,1.112,4.924,3.006,6.529,5.383 c1.596,2.377,2.521,5.162,2.521,8.268C212.672,477.327,212.265,479.246,211.518,481.012z"/> <path class="st0" d="M419.943,444.786c-5.858-3.957-12.981-6.291-20.554-6.282c-5.042,0-9.907,1.026-14.306,2.895 c-6.604,2.793-12.2,7.436-16.164,13.303c-3.956,5.85-6.283,12.973-6.274,20.546c-0.009,5.043,1.027,9.908,2.895,14.306 c2.793,6.614,7.438,12.2,13.295,16.165c5.849,3.965,12.98,6.283,20.554,6.283c5.043,0,9.908-1.028,14.305-2.895 c6.606-2.793,12.201-7.446,16.165-13.304c3.956-5.85,6.283-12.981,6.274-20.554c0.008-5.042-1.028-9.898-2.895-14.305 C430.445,454.328,425.801,448.742,419.943,444.786z M413.041,481.012c-1.112,2.649-3.013,4.933-5.374,6.529 c-2.378,1.596-5.17,2.521-8.278,2.53c-2.08-0.009-3.998-0.416-5.764-1.172c-2.649-1.103-4.925-3.005-6.52-5.365 c-1.605-2.386-2.531-5.179-2.531-8.287c0-2.072,0.416-3.99,1.154-5.764c1.122-2.64,3.014-4.924,5.383-6.528 c2.377-1.596,5.17-2.514,8.277-2.522c2.08,0,3.999,0.417,5.765,1.163c2.64,1.112,4.924,3.006,6.52,5.383 c1.596,2.377,2.53,5.162,2.53,8.268C414.204,477.327,413.789,479.246,413.041,481.012z"/> <path class="st0" d="M491.615,95.734c-5.051-6.18-12.624-9.772-20.621-9.772H123.665L111.83,45.305v0.008 c-5.433-18.176-20.342-31.947-38.884-35.92L30.481,0.3C23.298-1.245,16.217,3.339,14.672,10.53 c-1.537,7.19,3.04,14.271,10.239,15.807l42.45,9.102c9.041,1.935,16.308,8.642,18.948,17.506l77.598,266.547 c-1.748,0.815-3.438,1.698-5.06,2.674c-8.371,4.984-15.078,11.98-19.578,20.147c-4.304,7.76-6.588,16.555-6.8,25.631h-0.043v1.383 h0.034c0.17,7.09,1.682,13.89,4.305,20.096c4.202,9.925,11.181,18.321,19.976,24.264c8.796,5.951,19.476,9.44,30.852,9.432h249.568 c7.36,0,13.329-5.96,13.329-13.312c0-7.352-5.969-13.312-13.329-13.312l-249.568-0.008c-3.973,0-7.691-0.798-11.104-2.233 c-5.094-2.156-9.492-5.79-12.565-10.358c-2.955-4.39-4.703-9.56-4.84-15.23c0.153-6.767,2.31-12.642,6.096-17.337 c1.961-2.42,4.38-4.542,7.318-6.3c2.904-1.732,6.325-3.107,10.341-3.973l250.841-40.828c16.394-2.674,29.425-15.205,32.737-31.481 l30.682-150.839v-0.016c0.356-1.749,0.526-3.532,0.526-5.298C497.625,106.499,495.537,100.54,491.615,95.734z M236.665,284.548 c-7.471,2.19-15.299-2.106-17.49-9.577l-36.522-125.055c-2.174-7.471,2.106-15.299,9.584-17.481 c7.48-2.182,15.308,2.106,17.489,9.586l36.515,125.038C248.432,274.538,244.135,282.375,236.665,284.548z M295.686,275.252 c-7.47,2.182-15.298-2.105-17.489-9.585l-33.875-115.988c-2.182-7.471,2.106-15.299,9.586-17.489 c7.479-2.174,15.307,2.114,17.48,9.593l33.874,115.98C307.453,265.242,303.157,273.07,295.686,275.252z M354.793,266.228 c-7.472,2.181-15.299-2.106-17.49-9.586l-31.302-107.193c-2.182-7.47,2.106-15.307,9.585-17.48 c7.472-2.19,15.299,2.097,17.48,9.577l31.302,107.192C366.56,256.209,362.263,264.045,354.793,266.228z M413.712,256.599 c-7.471,2.182-15.299-2.105-17.48-9.585l-28.569-97.812c-2.182-7.471,2.106-15.298,9.585-17.489 c7.479-2.174,15.307,2.106,17.48,9.584l28.577,97.812C425.479,246.59,421.191,254.409,413.712,256.599z"/> </g> </g>
</svg>