<?xml version="1.0" encoding="iso-8859-1"?>
<!-- Uploaded to: SVG Repo, www.svgrepo.com, Generator: SVG Repo Mixer Tools -->
<svg version="1.1" id="Layer_1" xmlns="http://www.w3.org/2000/svg" xmlns:xlink="http://www.w3.org/1999/xlink" 
	 viewBox="0 0 392.545 392.545" xml:space="preserve">
<path style="fill:#FFFFFF;" d="M359.497,370.759c5.624,0,8.598-3.685,9.503-5.301c1.034-1.616,3.038-5.883,0.453-10.925
	L206.22,28.004c-1.939-3.879-5.689-6.206-10.02-6.206c-4.331,0-8.145,2.327-10.02,6.206L22.947,354.533
	c-2.521,5.042-0.453,9.244,0.453,10.925c1.034,1.616,3.879,5.301,9.503,5.301H359.497z"/>
<path style="fill:#FFC10D;" d="M196.2,56.06L95.868,256.723h25.6c6.012,0,10.925,4.848,10.925,10.925
	c0,6.077-4.848,10.925-10.925,10.925H85.008l-10.925,21.721h25.6c6.012,0,10.925,4.848,10.925,10.925
	c0,6.012-4.848,10.925-10.925,10.925H63.222l-13.059,26.052h292.137L196.2,56.06z"/>
<path style="fill:#FFFFFF;" d="M196.2,153.676c-6.788,0-12.283,5.495-12.283,12.283c0,6.788,5.495,12.283,12.283,12.283
	c6.788,0,12.283-5.495,12.283-12.283C208.483,159.171,202.988,153.676,196.2,153.676z"/>
<path style="fill:#194F82;" d="M196.2,131.891c-18.747,0-34.069,15.321-34.069,34.069s15.321,34.069,34.069,34.069
	s34.069-15.321,34.069-34.069S215.012,131.891,196.2,131.891z M196.2,178.242c-6.788,0-12.283-5.495-12.283-12.283
	c0-6.788,5.495-12.283,12.283-12.283c6.788,0,12.283,5.495,12.283,12.283C208.483,172.747,202.988,178.242,196.2,178.242z"/>
<rect x="183.917" y="238.945" style="fill:#FFFFFF;" width="24.566" height="72.275"/>
<g>
	<path style="fill:#194F82;" d="M219.343,217.159h-46.416c-6.012,0-10.925,4.848-10.925,10.925v94.125
		c0,6.012,4.848,10.925,10.925,10.925h46.416c6.012,0,10.925-4.848,10.925-10.925v-94.19
		C230.333,222.008,225.42,217.159,219.343,217.159z M208.483,311.285h-24.566V239.01h24.566V311.285z"/>
	<path style="fill:#194F82;" d="M388.975,344.771L225.678,18.242c-11.184-22.109-44.283-26.44-59.022,0L3.424,344.771
		c-9.503,21.333,2.069,46.61,29.543,47.774h326.465C385.937,391.64,399.125,366.105,388.975,344.771z M359.497,370.759H32.903
		c-8.727,0.517-13.188-9.826-10.02-16.226L186.179,28.004c4.848-8.857,15.774-7.887,20.105,0l163.297,326.465
		C373.008,361.644,368.095,371.018,359.497,370.759z"/>
</g>
</svg>